G04 #@! TF.FileFunction,Copper,L1,Top,Signal*
%FSLAX46Y46*%
G04 Gerber Fmt 4.6, Leading zero omitted, Abs format (unit mm)*
G04 Created by KiCad (PCBNEW 4.0.6+dfsg1-1) date Mon Feb 26 19:52:27 2018*
%MOMM*%
%LPD*%
G01*
G04 APERTURE LIST*
%ADD10C,0.100000*%
%ADD11R,2.500000X2.500000*%
%ADD12C,2.500000*%
%ADD13C,1.524000*%
%ADD14R,2.600000X1.600000*%
%ADD15R,1.000000X1.250000*%
%ADD16R,1.200000X1.200000*%
%ADD17R,2.300000X2.500000*%
%ADD18R,0.700000X1.300000*%
%ADD19C,6.400000*%
%ADD20C,0.600000*%
%ADD21R,1.300000X0.700000*%
%ADD22R,1.700000X1.700000*%
%ADD23O,1.700000X1.700000*%
%ADD24C,3.000000*%
%ADD25C,1.000000*%
%ADD26C,2.000000*%
%ADD27C,0.250000*%
G04 APERTURE END LIST*
D10*
D11*
X67127120Y13533120D03*
D12*
X67127120Y18533120D03*
D13*
X32329120Y46045120D03*
X13279120Y46045120D03*
X32329120Y47315120D03*
X32329120Y48585120D03*
X33599120Y46045120D03*
X33599120Y47315120D03*
X33599120Y48585120D03*
X14549120Y46045120D03*
X14549120Y47315120D03*
X14549120Y48585120D03*
X13279120Y48585120D03*
X13279120Y47315120D03*
X32329120Y84145120D03*
X33599120Y82875120D03*
X33599120Y84145120D03*
X31059120Y46045120D03*
X31059120Y47315120D03*
X31059120Y48585120D03*
X15819120Y46045120D03*
X15819120Y48585120D03*
X15819120Y47315120D03*
X31059120Y82875120D03*
X31059120Y84145120D03*
X15819120Y82875120D03*
X32329120Y82875120D03*
X15819120Y84145120D03*
X14549120Y82875120D03*
X13279120Y82875120D03*
X13279120Y84145120D03*
X14549120Y84145120D03*
X28519120Y54935120D03*
X25979120Y54935120D03*
X20899120Y54935120D03*
X18359120Y54935120D03*
X28519120Y75255120D03*
X25979120Y75255120D03*
X20899120Y75255120D03*
X18359120Y75255120D03*
X28519120Y76525120D03*
X25979120Y76525120D03*
X20899120Y76525120D03*
X18359120Y76525120D03*
D11*
X5659120Y68016120D03*
D12*
X5659120Y73016120D03*
D11*
X5659120Y57475120D03*
D12*
X5659120Y62475120D03*
D11*
X5659120Y78557120D03*
D12*
X5659120Y83557120D03*
D11*
X67127120Y2865120D03*
D12*
X67127120Y7865120D03*
D11*
X5151120Y47823120D03*
D12*
X5151120Y42823120D03*
D11*
X5151120Y37409120D03*
D12*
X5151120Y32409120D03*
D11*
X67889120Y68397120D03*
D12*
X67889120Y73397120D03*
D11*
X67889120Y48077120D03*
D12*
X67889120Y53077120D03*
D11*
X67889120Y58237120D03*
D12*
X67889120Y63237120D03*
D11*
X67889120Y35631120D03*
D12*
X67889120Y40631120D03*
D13*
X57729120Y46045120D03*
X38679120Y46045120D03*
X57729120Y47315120D03*
X57729120Y48585120D03*
X58999120Y46045120D03*
X58999120Y47315120D03*
X58999120Y48585120D03*
X39949120Y46045120D03*
X39949120Y47315120D03*
X39949120Y48585120D03*
X38679120Y48585120D03*
X38679120Y47315120D03*
X57729120Y84145120D03*
X58999120Y82875120D03*
X58999120Y84145120D03*
X56459120Y46045120D03*
X56459120Y47315120D03*
X56459120Y48585120D03*
X41219120Y46045120D03*
X41219120Y48585120D03*
X41219120Y47315120D03*
X56459120Y82875120D03*
X56459120Y84145120D03*
X41219120Y82875120D03*
X57729120Y82875120D03*
X41219120Y84145120D03*
X39949120Y82875120D03*
X38679120Y82875120D03*
X38679120Y84145120D03*
X39949120Y84145120D03*
X53919120Y54935120D03*
X51379120Y54935120D03*
X46299120Y54935120D03*
X43759120Y54935120D03*
X53919120Y75255120D03*
X51379120Y75255120D03*
X46299120Y75255120D03*
X43759120Y75255120D03*
X53919120Y76525120D03*
X51379120Y76525120D03*
X46299120Y76525120D03*
X43759120Y76525120D03*
X14549120Y40457120D03*
X33599120Y40457120D03*
X14549120Y39187120D03*
X14549120Y37917120D03*
X13279120Y40457120D03*
X13279120Y39187120D03*
X13279120Y37917120D03*
X32329120Y40457120D03*
X32329120Y39187120D03*
X32329120Y37917120D03*
X33599120Y37917120D03*
X33599120Y39187120D03*
X14549120Y2357120D03*
X13279120Y3627120D03*
X13279120Y2357120D03*
X15819120Y40457120D03*
X15819120Y39187120D03*
X15819120Y37917120D03*
X31059120Y40457120D03*
X31059120Y37917120D03*
X31059120Y39187120D03*
X15819120Y3627120D03*
X15819120Y2357120D03*
X31059120Y3627120D03*
X14549120Y3627120D03*
X31059120Y2357120D03*
X32329120Y3627120D03*
X33599120Y3627120D03*
X33599120Y2357120D03*
X32329120Y2357120D03*
X18359120Y31567120D03*
X20899120Y31567120D03*
X25979120Y31567120D03*
X28519120Y31567120D03*
X18359120Y11247120D03*
X20899120Y11247120D03*
X25979120Y11247120D03*
X28519120Y11247120D03*
X18359120Y9977120D03*
X20899120Y9977120D03*
X25979120Y9977120D03*
X28519120Y9977120D03*
X39949120Y40457120D03*
X58999120Y40457120D03*
X39949120Y39187120D03*
X39949120Y37917120D03*
X38679120Y40457120D03*
X38679120Y39187120D03*
X38679120Y37917120D03*
X57729120Y40457120D03*
X57729120Y39187120D03*
X57729120Y37917120D03*
X58999120Y37917120D03*
X58999120Y39187120D03*
X39949120Y2357120D03*
X38679120Y3627120D03*
X38679120Y2357120D03*
X41219120Y40457120D03*
X41219120Y39187120D03*
X41219120Y37917120D03*
X56459120Y40457120D03*
X56459120Y37917120D03*
X56459120Y39187120D03*
X41219120Y3627120D03*
X41219120Y2357120D03*
X56459120Y3627120D03*
X39949120Y3627120D03*
X56459120Y2357120D03*
X57729120Y3627120D03*
X58999120Y3627120D03*
X58999120Y2357120D03*
X57729120Y2357120D03*
X43759120Y31567120D03*
X46299120Y31567120D03*
X51379120Y31567120D03*
X53919120Y31567120D03*
X43759120Y11247120D03*
X46299120Y11247120D03*
X51379120Y11247120D03*
X53919120Y11247120D03*
X43759120Y9977120D03*
X46299120Y9977120D03*
X51379120Y9977120D03*
X53919120Y9977120D03*
D14*
X25239120Y60777120D03*
X21639120Y60777120D03*
X21639120Y25979120D03*
X25239120Y25979120D03*
D15*
X24439120Y56967120D03*
X22439120Y56967120D03*
X22439120Y29535120D03*
X24439120Y29535120D03*
D14*
X50385120Y60777120D03*
X46785120Y60777120D03*
X47039120Y25725120D03*
X50639120Y25725120D03*
D15*
X49839120Y56967120D03*
X47839120Y56967120D03*
X47839120Y29281120D03*
X49839120Y29281120D03*
D16*
X22761120Y72969120D03*
X20561120Y72969120D03*
X47907120Y73223120D03*
X45707120Y73223120D03*
D17*
X24709120Y64977120D03*
X24709120Y69277120D03*
X22169120Y21779120D03*
X22169120Y17479120D03*
D16*
X23863120Y13533120D03*
X26063120Y13533120D03*
X49517120Y13533120D03*
X51717120Y13533120D03*
D17*
X49855120Y64977120D03*
X49855120Y69277120D03*
X47569120Y21525120D03*
X47569120Y17225120D03*
D18*
X26675120Y72969120D03*
X24775120Y72969120D03*
X51567120Y73223120D03*
X49667120Y73223120D03*
X20266620Y13533120D03*
X22166620Y13533120D03*
X45857120Y13533120D03*
X47757120Y13533120D03*
D11*
X5151120Y16581120D03*
D12*
X5151120Y11581120D03*
D11*
X5151120Y26995120D03*
D12*
X5151120Y21995120D03*
D19*
X5151120Y4643120D03*
D20*
X7551120Y4643120D03*
X6848176Y2946064D03*
X5151120Y2243120D03*
X3454064Y2946064D03*
X2751120Y4643120D03*
X3454064Y6340176D03*
X5151120Y7043120D03*
X6848176Y6340176D03*
D19*
X36139120Y77033120D03*
D20*
X38539120Y77033120D03*
X37836176Y75336064D03*
X36139120Y74633120D03*
X34442064Y75336064D03*
X33739120Y77033120D03*
X34442064Y78730176D03*
X36139120Y79433120D03*
X37836176Y78730176D03*
D19*
X36139120Y28265120D03*
D20*
X38539120Y28265120D03*
X37836176Y26568064D03*
X36139120Y25865120D03*
X34442064Y26568064D03*
X33739120Y28265120D03*
X34442064Y29962176D03*
X36139120Y30665120D03*
X37836176Y29962176D03*
D19*
X36139120Y60269120D03*
D20*
X38539120Y60269120D03*
X37836176Y58572064D03*
X36139120Y57869120D03*
X34442064Y58572064D03*
X33739120Y60269120D03*
X34442064Y61966176D03*
X36139120Y62669120D03*
X37836176Y61966176D03*
D19*
X15819120Y27249120D03*
D20*
X18219120Y27249120D03*
X17516176Y25552064D03*
X15819120Y24849120D03*
X14122064Y25552064D03*
X13419120Y27249120D03*
X14122064Y28946176D03*
X15819120Y29649120D03*
X17516176Y28946176D03*
D19*
X36139120Y11501120D03*
D20*
X38539120Y11501120D03*
X37836176Y9804064D03*
X36139120Y9101120D03*
X34442064Y9804064D03*
X33739120Y11501120D03*
X34442064Y13198176D03*
X36139120Y13901120D03*
X37836176Y13198176D03*
D19*
X67635120Y81351120D03*
D20*
X70035120Y81351120D03*
X69332176Y79654064D03*
X67635120Y78951120D03*
X65938064Y79654064D03*
X65235120Y81351120D03*
X65938064Y83048176D03*
X67635120Y83751120D03*
X69332176Y83048176D03*
D21*
X60142120Y21473120D03*
X60142120Y23373120D03*
X58237120Y23373120D03*
X58237120Y21473120D03*
D18*
X69347120Y30043120D03*
X67447120Y30043120D03*
X67447120Y28138120D03*
X69347120Y28138120D03*
D22*
X64587120Y23058120D03*
D23*
X67127120Y23058120D03*
X69667120Y23058120D03*
D20*
X58237120Y21473120D03*
X25239120Y25979120D03*
X45943520Y66619120D03*
X47061120Y67736720D03*
X48204120Y68905120D03*
D24*
X67127120Y13533120D02*
X67127120Y7865120D01*
X53919120Y11247120D02*
X66238120Y11247120D01*
X67127120Y12136120D02*
X67127120Y13533120D01*
X66238120Y11247120D02*
X67127120Y12136120D01*
D25*
X52395120Y21153120D02*
X53157120Y21153120D01*
X52715120Y21153120D02*
X53157120Y21153120D01*
X52395120Y21473120D02*
X52715120Y21153120D01*
X58237120Y21473120D02*
X52395120Y21473120D01*
X69667120Y23058120D02*
X69667120Y27818120D01*
X69667120Y27818120D02*
X69347120Y28138120D01*
X46785120Y60777120D02*
X45537120Y60777120D01*
X45537120Y60777120D02*
X42870120Y63444120D01*
X42870120Y74366120D02*
X43759120Y75255120D01*
X42870120Y63444120D02*
X42870120Y74366120D01*
D24*
X67889120Y40631120D02*
X65175120Y40631120D01*
X65175120Y40631120D02*
X59761120Y46045120D01*
X59761120Y46045120D02*
X57729120Y46045120D01*
X18359120Y75255120D02*
X7898120Y75255120D01*
X7898120Y75255120D02*
X5659120Y73016120D01*
D25*
X20561120Y72969120D02*
X20561120Y74917120D01*
X20561120Y74917120D02*
X20899120Y75255120D01*
D24*
X5151120Y37409120D02*
X14041120Y37409120D01*
X14041120Y37409120D02*
X14549120Y37917120D01*
D26*
X58999120Y84145120D02*
X58999120Y82875120D01*
D25*
X45707120Y73223120D02*
X45707120Y73307120D01*
X45707120Y73307120D02*
X43759120Y75255120D01*
D26*
X46785120Y60777120D02*
X46785120Y56989120D01*
X46299120Y56503120D02*
X46299120Y54935120D01*
X46785120Y56989120D02*
X46299120Y56503120D01*
D25*
X47839120Y56967120D02*
X47839120Y56475120D01*
X47839120Y56475120D02*
X46299120Y54935120D01*
D26*
X50639120Y25725120D02*
X50639120Y29557120D01*
X50639120Y29557120D02*
X52649120Y31567120D01*
X51379120Y11247120D02*
X52395120Y12263120D01*
X52395120Y23969120D02*
X50639120Y25725120D01*
X52395120Y12263120D02*
X52395120Y21153120D01*
X52395120Y21153120D02*
X52395120Y23969120D01*
X53919120Y11247120D02*
X54681120Y11247120D01*
X25979120Y31567120D02*
X25239120Y30827120D01*
X25239120Y25979120D02*
X25239120Y30827120D01*
X21639120Y60777120D02*
X21639120Y58215120D01*
X21639120Y58215120D02*
X18359120Y54935120D01*
D25*
X21639120Y60777120D02*
X21639120Y57767120D01*
X21639120Y57767120D02*
X22439120Y56967120D01*
X22439120Y56967120D02*
X20391120Y56967120D01*
X20391120Y56967120D02*
X18359120Y54935120D01*
X26063120Y13533120D02*
X26233120Y13533120D01*
X26233120Y13533120D02*
X28519120Y11247120D01*
X51717120Y13533120D02*
X52395120Y13533120D01*
X52395120Y13533120D02*
X53919120Y12009120D01*
X53919120Y12009120D02*
X53919120Y11247120D01*
D24*
X5151120Y26995120D02*
X5151120Y21995120D01*
X5151120Y32409120D02*
X5151120Y26995120D01*
X5151120Y37409120D02*
X5151120Y32409120D01*
D26*
X46299120Y76525120D02*
X46299120Y77033120D01*
X46299120Y77033120D02*
X52141120Y82875120D01*
X52141120Y82875120D02*
X56459120Y82875120D01*
X56459120Y82875120D02*
X56459120Y84145120D01*
X58999120Y82875120D02*
X56459120Y82875120D01*
X56459120Y84145120D02*
X58999120Y84145120D01*
X43759120Y76525120D02*
X43759120Y76779120D01*
X43759120Y76779120D02*
X51125120Y84145120D01*
X51125120Y84145120D02*
X56459120Y84145120D01*
X43759120Y76525120D02*
X43759120Y75255120D01*
X46299120Y75255120D02*
X46299120Y76525120D01*
X43759120Y75255120D02*
X46299120Y75255120D01*
X43759120Y76525120D02*
X46299120Y76525120D01*
X31059120Y82875120D02*
X24455120Y82875120D01*
X23947120Y82875120D02*
X23947120Y82367120D01*
X24455120Y82875120D02*
X23947120Y82875120D01*
X18359120Y76525120D02*
X18867120Y76525120D01*
X18867120Y76525120D02*
X19629120Y77287120D01*
X19629120Y79827120D02*
X22931120Y83129120D01*
X19629120Y77287120D02*
X19629120Y79827120D01*
X18359120Y76525120D02*
X18359120Y80081120D01*
X22423120Y84145120D02*
X25725120Y84145120D01*
X18359120Y80081120D02*
X22423120Y84145120D01*
X18359120Y76525120D02*
X20899120Y76525120D01*
X18359120Y75255120D02*
X18359120Y76525120D01*
X18359120Y75255120D02*
X20899120Y75255120D01*
X20899120Y76525120D02*
X20899120Y75255120D01*
X33599120Y84145120D02*
X32329120Y84145120D01*
X33599120Y82875120D02*
X33599120Y84145120D01*
X32329120Y82875120D02*
X33599120Y82875120D01*
X31059120Y82875120D02*
X32329120Y82875120D01*
X31059120Y84145120D02*
X31059120Y82875120D01*
X20899120Y76525120D02*
X20899120Y79319120D01*
X20899120Y79319120D02*
X23947120Y82367120D01*
X23947120Y82367120D02*
X25725120Y84145120D01*
X25725120Y84145120D02*
X32329120Y84145120D01*
X41219120Y2357120D02*
X46299120Y2357120D01*
X46299120Y2357120D02*
X53919120Y9977120D01*
X41219120Y3627120D02*
X45029120Y3627120D01*
X45029120Y3627120D02*
X51379120Y9977120D01*
X53919120Y11247120D02*
X51379120Y11247120D01*
X53919120Y9977120D02*
X53919120Y11247120D01*
X51379120Y9977120D02*
X53919120Y9977120D01*
X51379120Y11247120D02*
X51379120Y9977120D01*
X38679120Y2357120D02*
X38679120Y3627120D01*
X39949120Y2357120D02*
X38679120Y2357120D01*
X41219120Y2357120D02*
X39949120Y2357120D01*
X41219120Y3627120D02*
X41219120Y2357120D01*
X39949120Y3627120D02*
X41219120Y3627120D01*
X38679120Y3627120D02*
X39949120Y3627120D01*
D25*
X49839120Y29281120D02*
X49839120Y26525120D01*
X49839120Y26525120D02*
X50639120Y25725120D01*
X49839120Y29281120D02*
X49839120Y30027120D01*
X49839120Y30027120D02*
X51379120Y31567120D01*
D26*
X51379120Y31567120D02*
X52649120Y31567120D01*
X52649120Y31567120D02*
X53919120Y31567120D01*
X28519120Y9977120D02*
X28519120Y9405620D01*
X28519120Y9405620D02*
X21470620Y2357120D01*
X21470620Y2357120D02*
X19629120Y2357120D01*
X15819120Y3627120D02*
X20899120Y3627120D01*
X21534120Y3690620D02*
X21534120Y4262120D01*
X20962620Y3690620D02*
X21534120Y3690620D01*
X20899120Y3627120D02*
X20962620Y3690620D01*
X25979120Y9977120D02*
X25979120Y8707120D01*
X25979120Y8707120D02*
X21534120Y4262120D01*
X19629120Y2357120D02*
X15819120Y2357120D01*
X21534120Y4262120D02*
X19629120Y2357120D01*
X13279120Y2357120D02*
X13279120Y3627120D01*
X14549120Y2357120D02*
X13279120Y2357120D01*
X15819120Y2357120D02*
X14549120Y2357120D01*
X15819120Y3627120D02*
X15819120Y2357120D01*
X14549120Y3627120D02*
X15819120Y3627120D01*
X13279120Y3627120D02*
X14549120Y3627120D01*
X28519120Y11247120D02*
X25979120Y11247120D01*
X28519120Y9977120D02*
X28519120Y11247120D01*
X25979120Y9977120D02*
X28519120Y9977120D01*
X25979120Y11247120D02*
X25979120Y9977120D01*
D25*
X24439120Y29535120D02*
X24439120Y30027120D01*
X24439120Y30027120D02*
X25979120Y31567120D01*
D24*
X5151120Y16581120D02*
X2166620Y16581120D01*
X2166620Y16581120D02*
X2166620Y14565620D01*
X2166620Y14565620D02*
X5151120Y11581120D01*
D26*
X5659120Y57475120D02*
X3944620Y57475120D01*
X1404620Y17343120D02*
X2166620Y16581120D01*
X1404620Y54935120D02*
X1404620Y17343120D01*
X3944620Y57475120D02*
X1404620Y54935120D01*
D24*
X5151120Y11581120D02*
X5151120Y16581120D01*
X20899120Y16581120D02*
X46925120Y16581120D01*
X46925120Y16581120D02*
X47569120Y17225120D01*
X5151120Y16581120D02*
X20899120Y16581120D01*
X20899120Y16581120D02*
X21271120Y16581120D01*
X21271120Y16581120D02*
X22169120Y17479120D01*
X47061120Y67736720D02*
X45943520Y66619120D01*
X48204120Y68905120D02*
X48204120Y68879720D01*
X48204120Y68879720D02*
X47061120Y67736720D01*
X49855120Y69277120D02*
X48576120Y69277120D01*
X48576120Y69277120D02*
X48204120Y68905120D01*
X5151120Y47823120D02*
X5913120Y47823120D01*
X5913120Y47823120D02*
X10993120Y52903120D01*
X10993120Y52903120D02*
X10993120Y68016120D01*
X5151120Y47823120D02*
X5151120Y42823120D01*
X5659120Y68016120D02*
X10993120Y68016120D01*
X10993120Y68016120D02*
X18232120Y68016120D01*
X19493120Y69277120D02*
X24709120Y69277120D01*
X18232120Y68016120D02*
X19493120Y69277120D01*
D25*
X67127120Y18533120D02*
X63082120Y18533120D01*
X63082120Y18533120D02*
X60142120Y21473120D01*
X26675120Y72969120D02*
X27757120Y72969120D01*
X29535120Y74747120D02*
X29535120Y75509120D01*
X27757120Y72969120D02*
X29535120Y74747120D01*
D24*
X29535120Y75509120D02*
X29535120Y75509120D01*
X29535120Y75509120D02*
X28519120Y76525120D01*
D25*
X20266620Y13533120D02*
X20266620Y13154620D01*
X20266620Y13154620D02*
X18359120Y11247120D01*
D24*
X67889120Y58237120D02*
X58491120Y58237120D01*
X55189120Y75255120D02*
X53919120Y76525120D01*
X55189120Y61539120D02*
X55189120Y75255120D01*
X58491120Y58237120D02*
X55189120Y61539120D01*
D25*
X51567120Y73223120D02*
X51887120Y73223120D01*
X51887120Y73223120D02*
X53919120Y75255120D01*
X45857120Y13533120D02*
X45857120Y11567120D01*
X45857120Y11567120D02*
X45537120Y11247120D01*
X45537120Y11247120D02*
X46299120Y11247120D01*
D26*
X25239120Y56459120D02*
X26995120Y56459120D01*
X26995120Y56459120D02*
X28519120Y54935120D01*
X25239120Y57767120D02*
X25239120Y56459120D01*
X25239120Y56459120D02*
X25239120Y55675120D01*
X25239120Y55675120D02*
X25979120Y54935120D01*
X25239120Y60777120D02*
X25239120Y57767120D01*
X24709120Y64977120D02*
X24709120Y61307120D01*
X24709120Y61307120D02*
X25239120Y60777120D01*
D25*
X25239120Y57767120D02*
X24439120Y56967120D01*
X24439120Y56967120D02*
X26487120Y56967120D01*
X26487120Y56967120D02*
X28519120Y54935120D01*
D26*
X27503120Y51633120D02*
X27503120Y53411120D01*
X27503120Y53411120D02*
X27249120Y53665120D01*
X14549120Y47315120D02*
X23185120Y47315120D01*
X22423120Y47569120D02*
X22423120Y46553120D01*
X22931120Y47569120D02*
X22423120Y47569120D01*
X23185120Y47315120D02*
X22931120Y47569120D01*
X13279120Y46045120D02*
X13279120Y48585120D01*
X28519120Y54935120D02*
X28519120Y52649120D01*
X28519120Y52649120D02*
X27503120Y51633120D01*
X21915120Y46045120D02*
X13279120Y46045120D01*
X27503120Y51633120D02*
X22423120Y46553120D01*
X22423120Y46553120D02*
X21915120Y46045120D01*
X25979120Y54935120D02*
X28519120Y54935120D01*
X13279120Y48585120D02*
X15819120Y48585120D01*
X15819120Y48585120D02*
X16327120Y49093120D01*
X16327120Y49093120D02*
X23439120Y49093120D01*
X25979120Y51633120D02*
X25979120Y54935120D01*
X23439120Y49093120D02*
X25979120Y51633120D01*
X29789120Y36647120D02*
X32329120Y36647120D01*
X32329120Y36647120D02*
X33599120Y37917120D01*
X20899120Y31567120D02*
X20899120Y33599120D01*
X29789120Y36647120D02*
X31059120Y37917120D01*
X23947120Y36647120D02*
X29789120Y36647120D01*
X20899120Y33599120D02*
X23947120Y36647120D01*
X33599120Y39187120D02*
X23947120Y39187120D01*
X19629120Y32329120D02*
X18867120Y31567120D01*
X19629120Y34869120D02*
X19629120Y32329120D01*
X23947120Y39187120D02*
X19629120Y34869120D01*
X18867120Y31567120D02*
X18359120Y31567120D01*
X33599120Y37917120D02*
X33599120Y40457120D01*
X20899120Y31567120D02*
X20899120Y35123120D01*
X20899120Y35123120D02*
X23693120Y37917120D01*
X23693120Y37917120D02*
X33599120Y37917120D01*
X18359120Y31567120D02*
X18359120Y35631120D01*
X18359120Y35631120D02*
X23185120Y40457120D01*
X23185120Y40457120D02*
X33599120Y40457120D01*
D25*
X21639120Y25979120D02*
X21639120Y28735120D01*
X21639120Y28735120D02*
X22439120Y29535120D01*
D26*
X18359120Y31567120D02*
X21661120Y31567120D01*
X21661120Y31567120D02*
X20899120Y31567120D01*
X20899120Y31567120D02*
X20899120Y29745120D01*
X20899120Y29745120D02*
X21639120Y29005120D01*
X21639120Y25979120D02*
X21639120Y29005120D01*
X21639120Y29005120D02*
X21915120Y29281120D01*
X21639120Y25979120D02*
X21639120Y22309120D01*
X21639120Y22309120D02*
X22169120Y21779120D01*
D25*
X51379120Y54935120D02*
X51379120Y51887120D01*
X51379120Y51887120D02*
X46680120Y47188120D01*
X42616120Y47188120D02*
X41219120Y48585120D01*
X46680120Y47188120D02*
X42616120Y47188120D01*
D27*
X51379120Y54935120D02*
X51379120Y55427120D01*
X51379120Y55427120D02*
X49839120Y56967120D01*
D24*
X50385120Y60777120D02*
X50385120Y58469120D01*
X50385120Y58469120D02*
X53919120Y54935120D01*
X49855120Y64977120D02*
X49855120Y64587120D01*
X49855120Y64587120D02*
X50385120Y64057120D01*
X50385120Y64057120D02*
X50385120Y60777120D01*
D26*
X49474120Y47188120D02*
X38806120Y47188120D01*
X38806120Y47188120D02*
X38679120Y47315120D01*
X51379120Y54935120D02*
X52395120Y54935120D01*
X52649120Y54681120D02*
X52649120Y50363120D01*
X52395120Y54935120D02*
X52649120Y54681120D01*
X51379120Y54935120D02*
X53919120Y54935120D01*
X38679120Y48585120D02*
X48077120Y48585120D01*
X48077120Y48585120D02*
X51379120Y51887120D01*
X38679120Y48585120D02*
X38679120Y46045120D01*
X38679120Y46045120D02*
X41219120Y46045120D01*
X41219120Y46045120D02*
X48331120Y46045120D01*
X48331120Y46045120D02*
X49474120Y47188120D01*
X49474120Y47188120D02*
X52649120Y50363120D01*
X53919120Y51633120D02*
X53919120Y54935120D01*
X52649120Y50363120D02*
X53919120Y51633120D01*
D25*
X69347120Y30043120D02*
X69347120Y31633120D01*
X63063120Y32583120D02*
X57729120Y37917120D01*
X68397120Y32583120D02*
X63063120Y32583120D01*
X69347120Y31633120D02*
X68397120Y32583120D01*
D26*
X58999120Y40457120D02*
X58999120Y39187120D01*
X57729120Y40457120D02*
X58999120Y40457120D01*
X57729120Y39187120D02*
X57729120Y40457120D01*
X57729120Y37917120D02*
X57729120Y39187120D01*
X56459120Y37917120D02*
X57729120Y37917120D01*
X56459120Y39187120D02*
X56459120Y37917120D01*
X56459120Y40457120D02*
X56459120Y39187120D01*
X47061120Y29281120D02*
X47061120Y33091120D01*
X48331120Y34107120D02*
X48331120Y34361120D01*
X48077120Y34107120D02*
X48331120Y34107120D01*
X47061120Y33091120D02*
X48077120Y34107120D01*
X58999120Y39187120D02*
X51379120Y39187120D01*
X51379120Y39187120D02*
X43759120Y31567120D01*
X58999120Y37917120D02*
X58999120Y40457120D01*
X46299120Y31567120D02*
X46299120Y32329120D01*
X46299120Y32329120D02*
X48331120Y34361120D01*
X48331120Y34361120D02*
X51887120Y37917120D01*
X51887120Y37917120D02*
X58999120Y37917120D01*
X43759120Y31567120D02*
X43759120Y33599120D01*
X50617120Y40457120D02*
X58999120Y40457120D01*
X43759120Y33599120D02*
X50617120Y40457120D01*
D25*
X47839120Y29281120D02*
X47061120Y29281120D01*
X47061120Y29281120D02*
X47039120Y29281120D01*
X47039120Y29281120D02*
X47124620Y29281120D01*
X47124620Y29281120D02*
X47039120Y29281120D01*
D26*
X43759120Y31567120D02*
X46299120Y31567120D01*
X47039120Y25725120D02*
X47039120Y29281120D01*
X47039120Y29281120D02*
X47039120Y30827120D01*
X47039120Y30827120D02*
X46299120Y31567120D01*
X47569120Y21525120D02*
X47197120Y21525120D01*
X47197120Y21525120D02*
X47039120Y21683120D01*
X47039120Y21683120D02*
X47039120Y25725120D01*
D25*
X22761120Y72969120D02*
X24775120Y72969120D01*
X47907120Y73223120D02*
X49667120Y73223120D01*
X22166620Y13533120D02*
X23863120Y13533120D01*
X47757120Y13533120D02*
X49517120Y13533120D01*
X60142120Y23373120D02*
X64272120Y23373120D01*
X64272120Y23373120D02*
X64587120Y23058120D01*
X58237120Y23373120D02*
X60142120Y23373120D01*
X67447120Y28138120D02*
X67447120Y23378120D01*
X67447120Y23378120D02*
X67127120Y23058120D01*
X67447120Y30043120D02*
X67447120Y28138120D01*
M02*
