G04 #@! TF.FileFunction,Legend,Bot*
%FSLAX46Y46*%
G04 Gerber Fmt 4.6, Leading zero omitted, Abs format (unit mm)*
G04 Created by KiCad (PCBNEW 4.0.6+dfsg1-1) date Mon Feb 26 19:52:27 2018*
%MOMM*%
%LPD*%
G01*
G04 APERTURE LIST*
%ADD10C,0.100000*%
%ADD11C,0.250000*%
%ADD12C,0.200000*%
%ADD13C,0.300000*%
%ADD14C,0.010000*%
G04 APERTURE END LIST*
D10*
D11*
X68485834Y31621120D02*
X67914405Y31621120D01*
X68600119Y31278263D02*
X68200119Y32478263D01*
X67800119Y31278263D01*
X67400120Y31278263D02*
X67400120Y32478263D01*
X67114405Y32478263D01*
X66942977Y32421120D01*
X66828691Y32306834D01*
X66771548Y32192549D01*
X66714405Y31963977D01*
X66714405Y31792549D01*
X66771548Y31563977D01*
X66828691Y31449691D01*
X66942977Y31335406D01*
X67114405Y31278263D01*
X67400120Y31278263D01*
X65514405Y31392549D02*
X65571548Y31335406D01*
X65742977Y31278263D01*
X65857263Y31278263D01*
X66028691Y31335406D01*
X66142977Y31449691D01*
X66200120Y31563977D01*
X66257263Y31792549D01*
X66257263Y31963977D01*
X66200120Y32192549D01*
X66142977Y32306834D01*
X66028691Y32421120D01*
X65857263Y32478263D01*
X65742977Y32478263D01*
X65571548Y32421120D01*
X65514405Y32363977D01*
D12*
X62809120Y21407120D02*
X62809120Y33091120D01*
X71318120Y21407120D02*
X71318120Y33091120D01*
D11*
X69294120Y27503024D02*
X69246501Y27598262D01*
X69246501Y27741119D01*
X69294120Y27883977D01*
X69389358Y27979215D01*
X69484596Y28026834D01*
X69675072Y28074453D01*
X69817930Y28074453D01*
X70008406Y28026834D01*
X70103644Y27979215D01*
X70198882Y27883977D01*
X70246501Y27741119D01*
X70246501Y27645881D01*
X70198882Y27503024D01*
X70151263Y27455405D01*
X69817930Y27455405D01*
X69817930Y27645881D01*
X70246501Y27026834D02*
X69246501Y27026834D01*
X70246501Y26455405D01*
X69246501Y26455405D01*
X70246501Y25979215D02*
X69246501Y25979215D01*
X69246501Y25741120D01*
X69294120Y25598262D01*
X69389358Y25503024D01*
X69484596Y25455405D01*
X69675072Y25407786D01*
X69817930Y25407786D01*
X70008406Y25455405D01*
X70103644Y25503024D01*
X70198882Y25598262D01*
X70246501Y25741120D01*
X70246501Y25979215D01*
X67452501Y28217310D02*
X66452501Y28217310D01*
X67166787Y27883976D01*
X66452501Y27550643D01*
X67452501Y27550643D01*
X67452501Y26645881D02*
X66928691Y26645881D01*
X66833453Y26693500D01*
X66785834Y26788738D01*
X66785834Y26979215D01*
X66833453Y27074453D01*
X67404882Y26645881D02*
X67452501Y26741119D01*
X67452501Y26979215D01*
X67404882Y27074453D01*
X67309644Y27122072D01*
X67214406Y27122072D01*
X67119168Y27074453D01*
X67071549Y26979215D01*
X67071549Y26741119D01*
X67023930Y26645881D01*
X67452501Y26169691D02*
X66785834Y26169691D01*
X66452501Y26169691D02*
X66500120Y26217310D01*
X66547739Y26169691D01*
X66500120Y26122072D01*
X66452501Y26169691D01*
X66547739Y26169691D01*
X66785834Y25693501D02*
X67452501Y25693501D01*
X66881072Y25693501D02*
X66833453Y25645882D01*
X66785834Y25550644D01*
X66785834Y25407786D01*
X66833453Y25312548D01*
X66928691Y25264929D01*
X67452501Y25264929D01*
D12*
X63895025Y30087263D02*
X63895025Y29934882D01*
X63933120Y29858691D01*
X64009310Y29782501D01*
X64161691Y29744406D01*
X64428358Y29744406D01*
X64580739Y29782501D01*
X64656930Y29858691D01*
X64695025Y29934882D01*
X64695025Y30087263D01*
X64656930Y30163453D01*
X64580739Y30239644D01*
X64428358Y30277739D01*
X64161691Y30277739D01*
X64009310Y30239644D01*
X63933120Y30163453D01*
X63895025Y30087263D01*
X64695025Y29058692D02*
X63895025Y29058692D01*
X64656930Y29058692D02*
X64695025Y29134882D01*
X64695025Y29287263D01*
X64656930Y29363454D01*
X64618834Y29401549D01*
X64542644Y29439644D01*
X64314072Y29439644D01*
X64237882Y29401549D01*
X64199787Y29363454D01*
X64161691Y29287263D01*
X64161691Y29134882D01*
X64199787Y29058692D01*
X64695025Y28563453D02*
X64656930Y28639644D01*
X64618834Y28677739D01*
X64542644Y28715834D01*
X64314072Y28715834D01*
X64237882Y28677739D01*
X64199787Y28639644D01*
X64161691Y28563453D01*
X64161691Y28449167D01*
X64199787Y28372977D01*
X64237882Y28334882D01*
X64314072Y28296786D01*
X64542644Y28296786D01*
X64618834Y28334882D01*
X64656930Y28372977D01*
X64695025Y28449167D01*
X64695025Y28563453D01*
X64695025Y27953929D02*
X64161691Y27953929D01*
X64237882Y27953929D02*
X64199787Y27915834D01*
X64161691Y27839643D01*
X64161691Y27725357D01*
X64199787Y27649167D01*
X64275977Y27611072D01*
X64695025Y27611072D01*
X64275977Y27611072D02*
X64199787Y27572976D01*
X64161691Y27496786D01*
X64161691Y27382500D01*
X64199787Y27306310D01*
X64275977Y27268215D01*
X64695025Y27268215D01*
X64656930Y26582500D02*
X64695025Y26658690D01*
X64695025Y26811071D01*
X64656930Y26887262D01*
X64580739Y26925357D01*
X64275977Y26925357D01*
X64199787Y26887262D01*
X64161691Y26811071D01*
X64161691Y26658690D01*
X64199787Y26582500D01*
X64275977Y26544405D01*
X64352168Y26544405D01*
X64428358Y26925357D01*
X64161691Y26315834D02*
X64161691Y26011072D01*
X63895025Y26201548D02*
X64580739Y26201548D01*
X64656930Y26163453D01*
X64695025Y26087262D01*
X64695025Y26011072D01*
X64695025Y25744405D02*
X64161691Y25744405D01*
X64314072Y25744405D02*
X64237882Y25706310D01*
X64199787Y25668214D01*
X64161691Y25592024D01*
X64161691Y25515833D01*
X64161691Y25325357D02*
X64695025Y25134881D01*
X64161691Y24944405D02*
X64695025Y25134881D01*
X64885501Y25211072D01*
X64923596Y25249167D01*
X64961691Y25325357D01*
X62809120Y21407120D02*
X71318120Y21407120D01*
D13*
X45693005Y21906949D02*
X45693005Y23406949D01*
X45121577Y23406949D01*
X44978719Y23335520D01*
X44907291Y23264091D01*
X44835862Y23121234D01*
X44835862Y22906949D01*
X44907291Y22764091D01*
X44978719Y22692663D01*
X45121577Y22621234D01*
X45693005Y22621234D01*
X43978719Y21906949D02*
X44121577Y21978377D01*
X44193005Y22049806D01*
X44264434Y22192663D01*
X44264434Y22621234D01*
X44193005Y22764091D01*
X44121577Y22835520D01*
X43978719Y22906949D01*
X43764434Y22906949D01*
X43621577Y22835520D01*
X43550148Y22764091D01*
X43478719Y22621234D01*
X43478719Y22192663D01*
X43550148Y22049806D01*
X43621577Y21978377D01*
X43764434Y21906949D01*
X43978719Y21906949D01*
X42978719Y22906949D02*
X42693005Y21906949D01*
X42407291Y22621234D01*
X42121576Y21906949D01*
X41835862Y22906949D01*
X40693005Y21978377D02*
X40835862Y21906949D01*
X41121576Y21906949D01*
X41264433Y21978377D01*
X41335862Y22121234D01*
X41335862Y22692663D01*
X41264433Y22835520D01*
X41121576Y22906949D01*
X40835862Y22906949D01*
X40693005Y22835520D01*
X40621576Y22692663D01*
X40621576Y22549806D01*
X41335862Y22406949D01*
X39978719Y21906949D02*
X39978719Y22906949D01*
X39978719Y22621234D02*
X39907291Y22764091D01*
X39835862Y22835520D01*
X39693005Y22906949D01*
X39550148Y22906949D01*
X37407291Y22692663D02*
X37193005Y22621234D01*
X37121577Y22549806D01*
X37050148Y22406949D01*
X37050148Y22192663D01*
X37121577Y22049806D01*
X37193005Y21978377D01*
X37335863Y21906949D01*
X37907291Y21906949D01*
X37907291Y23406949D01*
X37407291Y23406949D01*
X37264434Y23335520D01*
X37193005Y23264091D01*
X37121577Y23121234D01*
X37121577Y22978377D01*
X37193005Y22835520D01*
X37264434Y22764091D01*
X37407291Y22692663D01*
X37907291Y22692663D01*
X36193005Y21906949D02*
X36335863Y21978377D01*
X36407291Y22049806D01*
X36478720Y22192663D01*
X36478720Y22621234D01*
X36407291Y22764091D01*
X36335863Y22835520D01*
X36193005Y22906949D01*
X35978720Y22906949D01*
X35835863Y22835520D01*
X35764434Y22764091D01*
X35693005Y22621234D01*
X35693005Y22192663D01*
X35764434Y22049806D01*
X35835863Y21978377D01*
X35978720Y21906949D01*
X36193005Y21906949D01*
X34407291Y21906949D02*
X34407291Y22692663D01*
X34478720Y22835520D01*
X34621577Y22906949D01*
X34907291Y22906949D01*
X35050148Y22835520D01*
X34407291Y21978377D02*
X34550148Y21906949D01*
X34907291Y21906949D01*
X35050148Y21978377D01*
X35121577Y22121234D01*
X35121577Y22264091D01*
X35050148Y22406949D01*
X34907291Y22478377D01*
X34550148Y22478377D01*
X34407291Y22549806D01*
X33693005Y21906949D02*
X33693005Y22906949D01*
X33693005Y22621234D02*
X33621577Y22764091D01*
X33550148Y22835520D01*
X33407291Y22906949D01*
X33264434Y22906949D01*
X32121577Y21906949D02*
X32121577Y23406949D01*
X32121577Y21978377D02*
X32264434Y21906949D01*
X32550148Y21906949D01*
X32693006Y21978377D01*
X32764434Y22049806D01*
X32835863Y22192663D01*
X32835863Y22621234D01*
X32764434Y22764091D01*
X32693006Y22835520D01*
X32550148Y22906949D01*
X32264434Y22906949D01*
X32121577Y22835520D01*
X30264434Y22478377D02*
X29121577Y22478377D01*
X27478720Y23406949D02*
X26978720Y21906949D01*
X26478720Y23406949D01*
X25335863Y22906949D02*
X25335863Y21906949D01*
X25693006Y23478377D02*
X26050149Y22406949D01*
X25121577Y22406949D01*
X51157292Y19356949D02*
X51157292Y20856949D01*
X50514435Y19356949D02*
X50514435Y20142663D01*
X50585864Y20285520D01*
X50728721Y20356949D01*
X50943006Y20356949D01*
X51085864Y20285520D01*
X51157292Y20214091D01*
X50014435Y20356949D02*
X49443006Y20356949D01*
X49800149Y20856949D02*
X49800149Y19571234D01*
X49728721Y19428377D01*
X49585863Y19356949D01*
X49443006Y19356949D01*
X49157292Y20356949D02*
X48585863Y20356949D01*
X48943006Y20856949D02*
X48943006Y19571234D01*
X48871578Y19428377D01*
X48728720Y19356949D01*
X48585863Y19356949D01*
X48085863Y20356949D02*
X48085863Y18856949D01*
X48085863Y20285520D02*
X47943006Y20356949D01*
X47657292Y20356949D01*
X47514435Y20285520D01*
X47443006Y20214091D01*
X47371577Y20071234D01*
X47371577Y19642663D01*
X47443006Y19499806D01*
X47514435Y19428377D01*
X47657292Y19356949D01*
X47943006Y19356949D01*
X48085863Y19428377D01*
X46728720Y19499806D02*
X46657292Y19428377D01*
X46728720Y19356949D01*
X46800149Y19428377D01*
X46728720Y19499806D01*
X46728720Y19356949D01*
X46728720Y20285520D02*
X46657292Y20214091D01*
X46728720Y20142663D01*
X46800149Y20214091D01*
X46728720Y20285520D01*
X46728720Y20142663D01*
X44943006Y20928377D02*
X46228720Y18999806D01*
X43371577Y20928377D02*
X44657291Y18999806D01*
X42300148Y19428377D02*
X42443005Y19356949D01*
X42728719Y19356949D01*
X42871576Y19428377D01*
X42943005Y19571234D01*
X42943005Y20142663D01*
X42871576Y20285520D01*
X42728719Y20356949D01*
X42443005Y20356949D01*
X42300148Y20285520D01*
X42228719Y20142663D01*
X42228719Y19999806D01*
X42943005Y19856949D01*
X41371576Y19356949D02*
X41514434Y19428377D01*
X41585862Y19571234D01*
X41585862Y20856949D01*
X40228720Y19428377D02*
X40371577Y19356949D01*
X40657291Y19356949D01*
X40800148Y19428377D01*
X40871577Y19571234D01*
X40871577Y20142663D01*
X40800148Y20285520D01*
X40657291Y20356949D01*
X40371577Y20356949D01*
X40228720Y20285520D01*
X40157291Y20142663D01*
X40157291Y19999806D01*
X40871577Y19856949D01*
X39514434Y19356949D02*
X39514434Y20856949D01*
X39371577Y19928377D02*
X38943006Y19356949D01*
X38943006Y20356949D02*
X39514434Y19785520D01*
X38514434Y20356949D02*
X37943005Y20356949D01*
X38300148Y20856949D02*
X38300148Y19571234D01*
X38228720Y19428377D01*
X38085862Y19356949D01*
X37943005Y19356949D01*
X37443005Y19356949D02*
X37443005Y20356949D01*
X37443005Y20071234D02*
X37371577Y20214091D01*
X37300148Y20285520D01*
X37157291Y20356949D01*
X37014434Y20356949D01*
X36300148Y19356949D02*
X36443006Y19428377D01*
X36514434Y19499806D01*
X36585863Y19642663D01*
X36585863Y20071234D01*
X36514434Y20214091D01*
X36443006Y20285520D01*
X36300148Y20356949D01*
X36085863Y20356949D01*
X35943006Y20285520D01*
X35871577Y20214091D01*
X35800148Y20071234D01*
X35800148Y19642663D01*
X35871577Y19499806D01*
X35943006Y19428377D01*
X36085863Y19356949D01*
X36300148Y19356949D01*
X35157291Y20356949D02*
X35157291Y18856949D01*
X35157291Y20285520D02*
X35014434Y20356949D01*
X34728720Y20356949D01*
X34585863Y20285520D01*
X34514434Y20214091D01*
X34443005Y20071234D01*
X34443005Y19642663D01*
X34514434Y19499806D01*
X34585863Y19428377D01*
X34728720Y19356949D01*
X35014434Y19356949D01*
X35157291Y19428377D01*
X33800148Y19356949D02*
X33800148Y20356949D01*
X33800148Y20856949D02*
X33871577Y20785520D01*
X33800148Y20714091D01*
X33728720Y20785520D01*
X33800148Y20856949D01*
X33800148Y20714091D01*
X32871576Y19356949D02*
X33014434Y19428377D01*
X33085862Y19499806D01*
X33157291Y19642663D01*
X33157291Y20071234D01*
X33085862Y20214091D01*
X33014434Y20285520D01*
X32871576Y20356949D01*
X32657291Y20356949D01*
X32514434Y20285520D01*
X32443005Y20214091D01*
X32371576Y20071234D01*
X32371576Y19642663D01*
X32443005Y19499806D01*
X32514434Y19428377D01*
X32657291Y19356949D01*
X32871576Y19356949D01*
X31728719Y20356949D02*
X31728719Y19356949D01*
X31728719Y20214091D02*
X31657291Y20285520D01*
X31514433Y20356949D01*
X31300148Y20356949D01*
X31157291Y20285520D01*
X31085862Y20142663D01*
X31085862Y19356949D01*
X29800148Y19428377D02*
X29943005Y19356949D01*
X30228719Y19356949D01*
X30371576Y19428377D01*
X30443005Y19571234D01*
X30443005Y20142663D01*
X30371576Y20285520D01*
X30228719Y20356949D01*
X29943005Y20356949D01*
X29800148Y20285520D01*
X29728719Y20142663D01*
X29728719Y19999806D01*
X30443005Y19856949D01*
X28514434Y19428377D02*
X28657291Y19356949D01*
X28943005Y19356949D01*
X29085862Y19428377D01*
X29157291Y19571234D01*
X29157291Y20142663D01*
X29085862Y20285520D01*
X28943005Y20356949D01*
X28657291Y20356949D01*
X28514434Y20285520D01*
X28443005Y20142663D01*
X28443005Y19999806D01*
X29157291Y19856949D01*
X27800148Y19356949D02*
X27800148Y20356949D01*
X27800148Y20071234D02*
X27728720Y20214091D01*
X27657291Y20285520D01*
X27514434Y20356949D01*
X27371577Y20356949D01*
X26871577Y19499806D02*
X26800149Y19428377D01*
X26871577Y19356949D01*
X26943006Y19428377D01*
X26871577Y19499806D01*
X26871577Y19356949D01*
X25514434Y19428377D02*
X25657291Y19356949D01*
X25943005Y19356949D01*
X26085863Y19428377D01*
X26157291Y19499806D01*
X26228720Y19642663D01*
X26228720Y20071234D01*
X26157291Y20214091D01*
X26085863Y20285520D01*
X25943005Y20356949D01*
X25657291Y20356949D01*
X25514434Y20285520D01*
X24657291Y19356949D02*
X24800149Y19428377D01*
X24871577Y19499806D01*
X24943006Y19642663D01*
X24943006Y20071234D01*
X24871577Y20214091D01*
X24800149Y20285520D01*
X24657291Y20356949D01*
X24443006Y20356949D01*
X24300149Y20285520D01*
X24228720Y20214091D01*
X24157291Y20071234D01*
X24157291Y19642663D01*
X24228720Y19499806D01*
X24300149Y19428377D01*
X24443006Y19356949D01*
X24657291Y19356949D01*
X23514434Y19499806D02*
X23443006Y19428377D01*
X23514434Y19356949D01*
X23585863Y19428377D01*
X23514434Y19499806D01*
X23514434Y19356949D01*
X22800148Y19356949D02*
X22800148Y20356949D01*
X22800148Y20071234D02*
X22728720Y20214091D01*
X22657291Y20285520D01*
X22514434Y20356949D01*
X22371577Y20356949D01*
X21943006Y19428377D02*
X21800149Y19356949D01*
X21514434Y19356949D01*
X21371577Y19428377D01*
X21300149Y19571234D01*
X21300149Y19642663D01*
X21371577Y19785520D01*
X21514434Y19856949D01*
X21728720Y19856949D01*
X21871577Y19928377D01*
X21943006Y20071234D01*
X21943006Y20142663D01*
X21871577Y20285520D01*
X21728720Y20356949D01*
X21514434Y20356949D01*
X21371577Y20285520D01*
X19585863Y20928377D02*
X20871577Y18999806D01*
X54871578Y16806949D02*
X54871578Y18306949D01*
X54228721Y16806949D02*
X54228721Y17592663D01*
X54300150Y17735520D01*
X54443007Y17806949D01*
X54657292Y17806949D01*
X54800150Y17735520D01*
X54871578Y17664091D01*
X53728721Y17806949D02*
X53157292Y17806949D01*
X53514435Y18306949D02*
X53514435Y17021234D01*
X53443007Y16878377D01*
X53300149Y16806949D01*
X53157292Y16806949D01*
X52871578Y17806949D02*
X52300149Y17806949D01*
X52657292Y18306949D02*
X52657292Y17021234D01*
X52585864Y16878377D01*
X52443006Y16806949D01*
X52300149Y16806949D01*
X51800149Y17806949D02*
X51800149Y16306949D01*
X51800149Y17735520D02*
X51657292Y17806949D01*
X51371578Y17806949D01*
X51228721Y17735520D01*
X51157292Y17664091D01*
X51085863Y17521234D01*
X51085863Y17092663D01*
X51157292Y16949806D01*
X51228721Y16878377D01*
X51371578Y16806949D01*
X51657292Y16806949D01*
X51800149Y16878377D01*
X50514435Y16878377D02*
X50371578Y16806949D01*
X50085863Y16806949D01*
X49943006Y16878377D01*
X49871578Y17021234D01*
X49871578Y17092663D01*
X49943006Y17235520D01*
X50085863Y17306949D01*
X50300149Y17306949D01*
X50443006Y17378377D01*
X50514435Y17521234D01*
X50514435Y17592663D01*
X50443006Y17735520D01*
X50300149Y17806949D01*
X50085863Y17806949D01*
X49943006Y17735520D01*
X49228720Y16949806D02*
X49157292Y16878377D01*
X49228720Y16806949D01*
X49300149Y16878377D01*
X49228720Y16949806D01*
X49228720Y16806949D01*
X49228720Y17735520D02*
X49157292Y17664091D01*
X49228720Y17592663D01*
X49300149Y17664091D01*
X49228720Y17735520D01*
X49228720Y17592663D01*
X47443006Y18378377D02*
X48728720Y16449806D01*
X45871577Y18378377D02*
X47157291Y16449806D01*
X44728719Y17806949D02*
X44728719Y16592663D01*
X44800148Y16449806D01*
X44871576Y16378377D01*
X45014433Y16306949D01*
X45228719Y16306949D01*
X45371576Y16378377D01*
X44728719Y16878377D02*
X44871576Y16806949D01*
X45157290Y16806949D01*
X45300148Y16878377D01*
X45371576Y16949806D01*
X45443005Y17092663D01*
X45443005Y17521234D01*
X45371576Y17664091D01*
X45300148Y17735520D01*
X45157290Y17806949D01*
X44871576Y17806949D01*
X44728719Y17735520D01*
X44014433Y16806949D02*
X44014433Y17806949D01*
X44014433Y18306949D02*
X44085862Y18235520D01*
X44014433Y18164091D01*
X43943005Y18235520D01*
X44014433Y18306949D01*
X44014433Y18164091D01*
X43514433Y17806949D02*
X42943004Y17806949D01*
X43300147Y18306949D02*
X43300147Y17021234D01*
X43228719Y16878377D01*
X43085861Y16806949D01*
X42943004Y16806949D01*
X42443004Y16806949D02*
X42443004Y18306949D01*
X41800147Y16806949D02*
X41800147Y17592663D01*
X41871576Y17735520D01*
X42014433Y17806949D01*
X42228718Y17806949D01*
X42371576Y17735520D01*
X42443004Y17664091D01*
X40443004Y17806949D02*
X40443004Y16806949D01*
X41085861Y17806949D02*
X41085861Y17021234D01*
X41014433Y16878377D01*
X40871575Y16806949D01*
X40657290Y16806949D01*
X40514433Y16878377D01*
X40443004Y16949806D01*
X39728718Y16806949D02*
X39728718Y18306949D01*
X39728718Y17735520D02*
X39585861Y17806949D01*
X39300147Y17806949D01*
X39157290Y17735520D01*
X39085861Y17664091D01*
X39014432Y17521234D01*
X39014432Y17092663D01*
X39085861Y16949806D01*
X39157290Y16878377D01*
X39300147Y16806949D01*
X39585861Y16806949D01*
X39728718Y16878377D01*
X38371575Y16949806D02*
X38300147Y16878377D01*
X38371575Y16806949D01*
X38443004Y16878377D01*
X38371575Y16949806D01*
X38371575Y16806949D01*
X37014432Y16878377D02*
X37157289Y16806949D01*
X37443003Y16806949D01*
X37585861Y16878377D01*
X37657289Y16949806D01*
X37728718Y17092663D01*
X37728718Y17521234D01*
X37657289Y17664091D01*
X37585861Y17735520D01*
X37443003Y17806949D01*
X37157289Y17806949D01*
X37014432Y17735520D01*
X36157289Y16806949D02*
X36300147Y16878377D01*
X36371575Y16949806D01*
X36443004Y17092663D01*
X36443004Y17521234D01*
X36371575Y17664091D01*
X36300147Y17735520D01*
X36157289Y17806949D01*
X35943004Y17806949D01*
X35800147Y17735520D01*
X35728718Y17664091D01*
X35657289Y17521234D01*
X35657289Y17092663D01*
X35728718Y16949806D01*
X35800147Y16878377D01*
X35943004Y16806949D01*
X36157289Y16806949D01*
X35014432Y16806949D02*
X35014432Y17806949D01*
X35014432Y17664091D02*
X34943004Y17735520D01*
X34800146Y17806949D01*
X34585861Y17806949D01*
X34443004Y17735520D01*
X34371575Y17592663D01*
X34371575Y16806949D01*
X34371575Y17592663D02*
X34300146Y17735520D01*
X34157289Y17806949D01*
X33943004Y17806949D01*
X33800146Y17735520D01*
X33728718Y17592663D01*
X33728718Y16806949D01*
X31943004Y18378377D02*
X33228718Y16449806D01*
X31443003Y17592663D02*
X30943003Y17592663D01*
X30728717Y16806949D02*
X31443003Y16806949D01*
X31443003Y18306949D01*
X30728717Y18306949D01*
X29871574Y16806949D02*
X30014432Y16878377D01*
X30085860Y17021234D01*
X30085860Y18306949D01*
X28728718Y16878377D02*
X28871575Y16806949D01*
X29157289Y16806949D01*
X29300146Y16878377D01*
X29371575Y17021234D01*
X29371575Y17592663D01*
X29300146Y17735520D01*
X29157289Y17806949D01*
X28871575Y17806949D01*
X28728718Y17735520D01*
X28657289Y17592663D01*
X28657289Y17449806D01*
X29371575Y17306949D01*
X28014432Y16806949D02*
X28014432Y18306949D01*
X27871575Y17378377D02*
X27443004Y16806949D01*
X27443004Y17806949D02*
X28014432Y17235520D01*
X27014432Y17806949D02*
X26443003Y17806949D01*
X26800146Y18306949D02*
X26800146Y17021234D01*
X26728718Y16878377D01*
X26585860Y16806949D01*
X26443003Y16806949D01*
X25943003Y16806949D02*
X25943003Y17806949D01*
X25943003Y17521234D02*
X25871575Y17664091D01*
X25800146Y17735520D01*
X25657289Y17806949D01*
X25514432Y17806949D01*
X24800146Y16806949D02*
X24943004Y16878377D01*
X25014432Y16949806D01*
X25085861Y17092663D01*
X25085861Y17521234D01*
X25014432Y17664091D01*
X24943004Y17735520D01*
X24800146Y17806949D01*
X24585861Y17806949D01*
X24443004Y17735520D01*
X24371575Y17664091D01*
X24300146Y17521234D01*
X24300146Y17092663D01*
X24371575Y16949806D01*
X24443004Y16878377D01*
X24585861Y16806949D01*
X24800146Y16806949D01*
X23657289Y17806949D02*
X23657289Y16306949D01*
X23657289Y17735520D02*
X23514432Y17806949D01*
X23228718Y17806949D01*
X23085861Y17735520D01*
X23014432Y17664091D01*
X22943003Y17521234D01*
X22943003Y17092663D01*
X23014432Y16949806D01*
X23085861Y16878377D01*
X23228718Y16806949D01*
X23514432Y16806949D01*
X23657289Y16878377D01*
X22300146Y16806949D02*
X22300146Y17806949D01*
X22300146Y18306949D02*
X22371575Y18235520D01*
X22300146Y18164091D01*
X22228718Y18235520D01*
X22300146Y18306949D01*
X22300146Y18164091D01*
X21371574Y16806949D02*
X21514432Y16878377D01*
X21585860Y16949806D01*
X21657289Y17092663D01*
X21657289Y17521234D01*
X21585860Y17664091D01*
X21514432Y17735520D01*
X21371574Y17806949D01*
X21157289Y17806949D01*
X21014432Y17735520D01*
X20943003Y17664091D01*
X20871574Y17521234D01*
X20871574Y17092663D01*
X20943003Y16949806D01*
X21014432Y16878377D01*
X21157289Y16806949D01*
X21371574Y16806949D01*
X20228717Y17806949D02*
X20228717Y16806949D01*
X20228717Y17664091D02*
X20157289Y17735520D01*
X20014431Y17806949D01*
X19800146Y17806949D01*
X19657289Y17735520D01*
X19585860Y17592663D01*
X19585860Y16806949D01*
X18300146Y16878377D02*
X18443003Y16806949D01*
X18728717Y16806949D01*
X18871574Y16878377D01*
X18943003Y17021234D01*
X18943003Y17592663D01*
X18871574Y17735520D01*
X18728717Y17806949D01*
X18443003Y17806949D01*
X18300146Y17735520D01*
X18228717Y17592663D01*
X18228717Y17449806D01*
X18943003Y17306949D01*
X17014432Y16878377D02*
X17157289Y16806949D01*
X17443003Y16806949D01*
X17585860Y16878377D01*
X17657289Y17021234D01*
X17657289Y17592663D01*
X17585860Y17735520D01*
X17443003Y17806949D01*
X17157289Y17806949D01*
X17014432Y17735520D01*
X16943003Y17592663D01*
X16943003Y17449806D01*
X17657289Y17306949D01*
X16300146Y16806949D02*
X16300146Y17806949D01*
X16300146Y17521234D02*
X16228718Y17664091D01*
X16157289Y17735520D01*
X16014432Y17806949D01*
X15871575Y17806949D01*
X63194191Y16171692D02*
X63194191Y15885978D01*
X63265620Y15743120D01*
X63408477Y15600263D01*
X63694191Y15528835D01*
X64194191Y15528835D01*
X64479906Y15600263D01*
X64622763Y15743120D01*
X64694191Y15885978D01*
X64694191Y16171692D01*
X64622763Y16314549D01*
X64479906Y16457406D01*
X64194191Y16528835D01*
X63694191Y16528835D01*
X63408477Y16457406D01*
X63265620Y16314549D01*
X63194191Y16171692D01*
X64694191Y14885977D02*
X63194191Y14885977D01*
X63194191Y14528834D01*
X63265620Y14314549D01*
X63408477Y14171691D01*
X63551334Y14100263D01*
X63837049Y14028834D01*
X64051334Y14028834D01*
X64337049Y14100263D01*
X64479906Y14171691D01*
X64622763Y14314549D01*
X64694191Y14528834D01*
X64694191Y14885977D01*
X63194191Y13100263D02*
X63194191Y12814549D01*
X63265620Y12671691D01*
X63408477Y12528834D01*
X63694191Y12457406D01*
X64194191Y12457406D01*
X64479906Y12528834D01*
X64622763Y12671691D01*
X64694191Y12814549D01*
X64694191Y13100263D01*
X64622763Y13243120D01*
X64479906Y13385977D01*
X64194191Y13457406D01*
X63694191Y13457406D01*
X63408477Y13385977D01*
X63265620Y13243120D01*
X63194191Y13100263D01*
X64694191Y11814548D02*
X63194191Y11814548D01*
X64265620Y11314548D01*
X63194191Y10814548D01*
X64694191Y10814548D01*
X63908477Y10100262D02*
X63908477Y9600262D01*
X64694191Y9385976D02*
X64694191Y10100262D01*
X63194191Y10100262D01*
X63194191Y9385976D01*
X63194191Y8957405D02*
X63194191Y8100262D01*
X64694191Y8528833D02*
X63194191Y8528833D01*
X64694191Y6743119D02*
X63979906Y7243119D01*
X64694191Y7600262D02*
X63194191Y7600262D01*
X63194191Y7028834D01*
X63265620Y6885976D01*
X63337049Y6814548D01*
X63479906Y6743119D01*
X63694191Y6743119D01*
X63837049Y6814548D01*
X63908477Y6885976D01*
X63979906Y7028834D01*
X63979906Y7600262D01*
X63979906Y5814548D02*
X64694191Y5814548D01*
X63194191Y6314548D02*
X63979906Y5814548D01*
X63194191Y5314548D01*
X71234691Y3920691D02*
X71234691Y4777834D01*
X71234691Y4349262D02*
X69734691Y4349262D01*
X69948977Y4492119D01*
X70091834Y4634977D01*
X70163263Y4777834D01*
X69877549Y3349263D02*
X69806120Y3277834D01*
X69734691Y3134977D01*
X69734691Y2777834D01*
X69806120Y2634977D01*
X69877549Y2563548D01*
X70020406Y2492120D01*
X70163263Y2492120D01*
X70377549Y2563548D01*
X71234691Y3420691D01*
X71234691Y2492120D01*
X69734691Y2063549D02*
X71234691Y1563549D01*
X69734691Y1063549D01*
X71298191Y19478191D02*
X71298191Y20335334D01*
X71298191Y19906762D02*
X69798191Y19906762D01*
X70012477Y20049619D01*
X70155334Y20192477D01*
X70226763Y20335334D01*
X69941049Y18906763D02*
X69869620Y18835334D01*
X69798191Y18692477D01*
X69798191Y18335334D01*
X69869620Y18192477D01*
X69941049Y18121048D01*
X70083906Y18049620D01*
X70226763Y18049620D01*
X70441049Y18121048D01*
X71298191Y18978191D01*
X71298191Y18049620D01*
X69798191Y17621049D02*
X71298191Y17121049D01*
X69798191Y16621049D01*
X69806120Y11818477D02*
X69734691Y11961334D01*
X69734691Y12175620D01*
X69806120Y12389905D01*
X69948977Y12532763D01*
X70091834Y12604191D01*
X70377549Y12675620D01*
X70591834Y12675620D01*
X70877549Y12604191D01*
X71020406Y12532763D01*
X71163263Y12389905D01*
X71234691Y12175620D01*
X71234691Y12032763D01*
X71163263Y11818477D01*
X71091834Y11747048D01*
X70591834Y11747048D01*
X70591834Y12032763D01*
X71234691Y11104191D02*
X69734691Y11104191D01*
X71234691Y10247048D01*
X69734691Y10247048D01*
X71234691Y9532762D02*
X69734691Y9532762D01*
X69734691Y9175619D01*
X69806120Y8961334D01*
X69948977Y8818476D01*
X70091834Y8747048D01*
X70377549Y8675619D01*
X70591834Y8675619D01*
X70877549Y8747048D01*
X71020406Y8818476D01*
X71163263Y8961334D01*
X71234691Y9175619D01*
X71234691Y9532762D01*
D12*
X62555120Y21026120D02*
X62555120Y388620D01*
X72588120Y21026120D02*
X72524620Y21026120D01*
X72588120Y388620D02*
X72588120Y21026120D01*
X62555120Y21026120D02*
X72524620Y21026120D01*
X72524620Y388620D02*
X72588120Y388620D01*
X62555120Y388620D02*
X72524620Y388620D01*
X62555120Y45537120D02*
X72588120Y45537120D01*
X72588120Y33091120D02*
X62555120Y33091120D01*
X72588120Y33091120D02*
X72524620Y33091120D01*
X72588120Y45283120D02*
X72588120Y33091120D01*
X62555120Y43124120D02*
X72524620Y43124120D01*
X62555120Y65793620D02*
X72588120Y65793620D01*
X72588120Y55633620D02*
X72588120Y55697120D01*
X62555120Y55633620D02*
X72588120Y55633620D01*
X72588120Y76271120D02*
X72588120Y76080620D01*
X62555120Y76271120D02*
X72588120Y76271120D01*
X62555120Y76017120D02*
X62555120Y76271120D01*
X62555120Y33091120D02*
X62555120Y76017120D01*
D13*
X70695120Y41599977D02*
X70623691Y41742834D01*
X70623691Y41957120D01*
X70695120Y42171405D01*
X70837977Y42314263D01*
X70980834Y42385691D01*
X71266549Y42457120D01*
X71480834Y42457120D01*
X71766549Y42385691D01*
X71909406Y42314263D01*
X72052263Y42171405D01*
X72123691Y41957120D01*
X72123691Y41814263D01*
X72052263Y41599977D01*
X71980834Y41528548D01*
X71480834Y41528548D01*
X71480834Y41814263D01*
X72123691Y40885691D02*
X70623691Y40885691D01*
X72123691Y40028548D01*
X70623691Y40028548D01*
X72123691Y39314262D02*
X70623691Y39314262D01*
X70623691Y38957119D01*
X70695120Y38742834D01*
X70837977Y38599976D01*
X70980834Y38528548D01*
X71266549Y38457119D01*
X71480834Y38457119D01*
X71766549Y38528548D01*
X71909406Y38599976D01*
X72052263Y38742834D01*
X72123691Y38957119D01*
X72123691Y39314262D01*
X70695120Y54299977D02*
X70623691Y54442834D01*
X70623691Y54657120D01*
X70695120Y54871405D01*
X70837977Y55014263D01*
X70980834Y55085691D01*
X71266549Y55157120D01*
X71480834Y55157120D01*
X71766549Y55085691D01*
X71909406Y55014263D01*
X72052263Y54871405D01*
X72123691Y54657120D01*
X72123691Y54514263D01*
X72052263Y54299977D01*
X71980834Y54228548D01*
X71480834Y54228548D01*
X71480834Y54514263D01*
X72123691Y53585691D02*
X70623691Y53585691D01*
X72123691Y52728548D01*
X70623691Y52728548D01*
X72123691Y52014262D02*
X70623691Y52014262D01*
X70623691Y51657119D01*
X70695120Y51442834D01*
X70837977Y51299976D01*
X70980834Y51228548D01*
X71266549Y51157119D01*
X71480834Y51157119D01*
X71766549Y51228548D01*
X71909406Y51299976D01*
X72052263Y51442834D01*
X72123691Y51657119D01*
X72123691Y52014262D01*
X70623691Y37377120D02*
X72123691Y36877120D01*
X70623691Y36377120D01*
X71980834Y35019977D02*
X72052263Y35091406D01*
X72123691Y35305692D01*
X72123691Y35448549D01*
X72052263Y35662834D01*
X71909406Y35805692D01*
X71766549Y35877120D01*
X71480834Y35948549D01*
X71266549Y35948549D01*
X70980834Y35877120D01*
X70837977Y35805692D01*
X70695120Y35662834D01*
X70623691Y35448549D01*
X70623691Y35305692D01*
X70695120Y35091406D01*
X70766549Y35019977D01*
X71980834Y33519977D02*
X72052263Y33591406D01*
X72123691Y33805692D01*
X72123691Y33948549D01*
X72052263Y34162834D01*
X71909406Y34305692D01*
X71766549Y34377120D01*
X71480834Y34448549D01*
X71266549Y34448549D01*
X70980834Y34377120D01*
X70837977Y34305692D01*
X70695120Y34162834D01*
X70623691Y33948549D01*
X70623691Y33805692D01*
X70695120Y33591406D01*
X70766549Y33519977D01*
X64868834Y41167120D02*
X64940263Y41238549D01*
X65011691Y41452835D01*
X65011691Y41595692D01*
X64940263Y41809977D01*
X64797406Y41952835D01*
X64654549Y42024263D01*
X64368834Y42095692D01*
X64154549Y42095692D01*
X63868834Y42024263D01*
X63725977Y41952835D01*
X63583120Y41809977D01*
X63511691Y41595692D01*
X63511691Y41452835D01*
X63583120Y41238549D01*
X63654549Y41167120D01*
X63511691Y40524263D02*
X64725977Y40524263D01*
X64868834Y40452835D01*
X64940263Y40381406D01*
X65011691Y40238549D01*
X65011691Y39952835D01*
X64940263Y39809977D01*
X64868834Y39738549D01*
X64725977Y39667120D01*
X63511691Y39667120D01*
X64940263Y39024263D02*
X65011691Y38809977D01*
X65011691Y38452834D01*
X64940263Y38309977D01*
X64868834Y38238548D01*
X64725977Y38167120D01*
X64583120Y38167120D01*
X64440263Y38238548D01*
X64368834Y38309977D01*
X64297406Y38452834D01*
X64225977Y38738548D01*
X64154549Y38881406D01*
X64083120Y38952834D01*
X63940263Y39024263D01*
X63797406Y39024263D01*
X63654549Y38952834D01*
X63583120Y38881406D01*
X63511691Y38738548D01*
X63511691Y38381406D01*
X63583120Y38167120D01*
X63511691Y37738549D02*
X63511691Y36881406D01*
X65011691Y37309977D02*
X63511691Y37309977D01*
X63511691Y36095692D02*
X63511691Y35809978D01*
X63583120Y35667120D01*
X63725977Y35524263D01*
X64011691Y35452835D01*
X64511691Y35452835D01*
X64797406Y35524263D01*
X64940263Y35667120D01*
X65011691Y35809978D01*
X65011691Y36095692D01*
X64940263Y36238549D01*
X64797406Y36381406D01*
X64511691Y36452835D01*
X64011691Y36452835D01*
X63725977Y36381406D01*
X63583120Y36238549D01*
X63511691Y36095692D01*
X65011691Y34809977D02*
X63511691Y34809977D01*
X64583120Y34309977D01*
X63511691Y33809977D01*
X65011691Y33809977D01*
X63511691Y53617119D02*
X63511691Y54331405D01*
X64225977Y54402834D01*
X64154549Y54331405D01*
X64083120Y54188548D01*
X64083120Y53831405D01*
X64154549Y53688548D01*
X64225977Y53617119D01*
X64368834Y53545691D01*
X64725977Y53545691D01*
X64868834Y53617119D01*
X64940263Y53688548D01*
X65011691Y53831405D01*
X65011691Y54188548D01*
X64940263Y54331405D01*
X64868834Y54402834D01*
X63511691Y53117120D02*
X65011691Y52617120D01*
X63511691Y52117120D01*
X64940263Y50545692D02*
X65011691Y50331406D01*
X65011691Y49974263D01*
X64940263Y49831406D01*
X64868834Y49759977D01*
X64725977Y49688549D01*
X64583120Y49688549D01*
X64440263Y49759977D01*
X64368834Y49831406D01*
X64297406Y49974263D01*
X64225977Y50259977D01*
X64154549Y50402835D01*
X64083120Y50474263D01*
X63940263Y50545692D01*
X63797406Y50545692D01*
X63654549Y50474263D01*
X63583120Y50402835D01*
X63511691Y50259977D01*
X63511691Y49902835D01*
X63583120Y49688549D01*
X64225977Y49045692D02*
X64225977Y48545692D01*
X65011691Y48331406D02*
X65011691Y49045692D01*
X63511691Y49045692D01*
X63511691Y48331406D01*
X65011691Y46831406D02*
X64297406Y47331406D01*
X65011691Y47688549D02*
X63511691Y47688549D01*
X63511691Y47117121D01*
X63583120Y46974263D01*
X63654549Y46902835D01*
X63797406Y46831406D01*
X64011691Y46831406D01*
X64154549Y46902835D01*
X64225977Y46974263D01*
X64297406Y47117121D01*
X64297406Y47688549D01*
X63511691Y63491405D02*
X63511691Y64205691D01*
X64225977Y64277120D01*
X64154549Y64205691D01*
X64083120Y64062834D01*
X64083120Y63705691D01*
X64154549Y63562834D01*
X64225977Y63491405D01*
X64368834Y63419977D01*
X64725977Y63419977D01*
X64868834Y63491405D01*
X64940263Y63562834D01*
X65011691Y63705691D01*
X65011691Y64062834D01*
X64940263Y64205691D01*
X64868834Y64277120D01*
X63511691Y62991406D02*
X65011691Y62491406D01*
X63511691Y61991406D01*
X65011691Y59491406D02*
X64297406Y59991406D01*
X65011691Y60348549D02*
X63511691Y60348549D01*
X63511691Y59777121D01*
X63583120Y59634263D01*
X63654549Y59562835D01*
X63797406Y59491406D01*
X64011691Y59491406D01*
X64154549Y59562835D01*
X64225977Y59634263D01*
X64297406Y59777121D01*
X64297406Y60348549D01*
X65011691Y58848549D02*
X63511691Y58848549D01*
X63511691Y58277121D01*
X63583120Y58134263D01*
X63654549Y58062835D01*
X63797406Y57991406D01*
X64011691Y57991406D01*
X64154549Y58062835D01*
X64225977Y58134263D01*
X64297406Y58277121D01*
X64297406Y58848549D01*
X65011691Y57348549D02*
X63511691Y57348549D01*
X63511691Y73810119D02*
X63511691Y74524405D01*
X64225977Y74595834D01*
X64154549Y74524405D01*
X64083120Y74381548D01*
X64083120Y74024405D01*
X64154549Y73881548D01*
X64225977Y73810119D01*
X64368834Y73738691D01*
X64725977Y73738691D01*
X64868834Y73810119D01*
X64940263Y73881548D01*
X65011691Y74024405D01*
X65011691Y74381548D01*
X64940263Y74524405D01*
X64868834Y74595834D01*
X63511691Y73310120D02*
X65011691Y72810120D01*
X63511691Y72310120D01*
X65011691Y69952977D02*
X65011691Y70667263D01*
X63511691Y70667263D01*
X63511691Y69167263D02*
X63511691Y68881549D01*
X63583120Y68738691D01*
X63725977Y68595834D01*
X64011691Y68524406D01*
X64511691Y68524406D01*
X64797406Y68595834D01*
X64940263Y68738691D01*
X65011691Y68881549D01*
X65011691Y69167263D01*
X64940263Y69310120D01*
X64797406Y69452977D01*
X64511691Y69524406D01*
X64011691Y69524406D01*
X63725977Y69452977D01*
X63583120Y69310120D01*
X63511691Y69167263D01*
X63583120Y67095834D02*
X63511691Y67238691D01*
X63511691Y67452977D01*
X63583120Y67667262D01*
X63725977Y67810120D01*
X63868834Y67881548D01*
X64154549Y67952977D01*
X64368834Y67952977D01*
X64654549Y67881548D01*
X64797406Y67810120D01*
X64940263Y67667262D01*
X65011691Y67452977D01*
X65011691Y67310120D01*
X64940263Y67095834D01*
X64868834Y67024405D01*
X64368834Y67024405D01*
X64368834Y67310120D01*
X70496691Y49950120D02*
X71996691Y49450120D01*
X70496691Y48950120D01*
X71853834Y47592977D02*
X71925263Y47664406D01*
X71996691Y47878692D01*
X71996691Y48021549D01*
X71925263Y48235834D01*
X71782406Y48378692D01*
X71639549Y48450120D01*
X71353834Y48521549D01*
X71139549Y48521549D01*
X70853834Y48450120D01*
X70710977Y48378692D01*
X70568120Y48235834D01*
X70496691Y48021549D01*
X70496691Y47878692D01*
X70568120Y47664406D01*
X70639549Y47592977D01*
X71853834Y46092977D02*
X71925263Y46164406D01*
X71996691Y46378692D01*
X71996691Y46521549D01*
X71925263Y46735834D01*
X71782406Y46878692D01*
X71639549Y46950120D01*
X71353834Y47021549D01*
X71139549Y47021549D01*
X70853834Y46950120D01*
X70710977Y46878692D01*
X70568120Y46735834D01*
X70496691Y46521549D01*
X70496691Y46378692D01*
X70568120Y46164406D01*
X70639549Y46092977D01*
X70568120Y64332977D02*
X70496691Y64475834D01*
X70496691Y64690120D01*
X70568120Y64904405D01*
X70710977Y65047263D01*
X70853834Y65118691D01*
X71139549Y65190120D01*
X71353834Y65190120D01*
X71639549Y65118691D01*
X71782406Y65047263D01*
X71925263Y64904405D01*
X71996691Y64690120D01*
X71996691Y64547263D01*
X71925263Y64332977D01*
X71853834Y64261548D01*
X71353834Y64261548D01*
X71353834Y64547263D01*
X71996691Y63618691D02*
X70496691Y63618691D01*
X71996691Y62761548D01*
X70496691Y62761548D01*
X71996691Y62047262D02*
X70496691Y62047262D01*
X70496691Y61690119D01*
X70568120Y61475834D01*
X70710977Y61332976D01*
X70853834Y61261548D01*
X71139549Y61190119D01*
X71353834Y61190119D01*
X71639549Y61261548D01*
X71782406Y61332976D01*
X71925263Y61475834D01*
X71996691Y61690119D01*
X71996691Y62047262D01*
X70496691Y60237120D02*
X71996691Y59737120D01*
X70496691Y59237120D01*
X71853834Y57879977D02*
X71925263Y57951406D01*
X71996691Y58165692D01*
X71996691Y58308549D01*
X71925263Y58522834D01*
X71782406Y58665692D01*
X71639549Y58737120D01*
X71353834Y58808549D01*
X71139549Y58808549D01*
X70853834Y58737120D01*
X70710977Y58665692D01*
X70568120Y58522834D01*
X70496691Y58308549D01*
X70496691Y58165692D01*
X70568120Y57951406D01*
X70639549Y57879977D01*
X71853834Y56379977D02*
X71925263Y56451406D01*
X71996691Y56665692D01*
X71996691Y56808549D01*
X71925263Y57022834D01*
X71782406Y57165692D01*
X71639549Y57237120D01*
X71353834Y57308549D01*
X71139549Y57308549D01*
X70853834Y57237120D01*
X70710977Y57165692D01*
X70568120Y57022834D01*
X70496691Y56808549D01*
X70496691Y56665692D01*
X70568120Y56451406D01*
X70639549Y56379977D01*
X70568120Y74492977D02*
X70496691Y74635834D01*
X70496691Y74850120D01*
X70568120Y75064405D01*
X70710977Y75207263D01*
X70853834Y75278691D01*
X71139549Y75350120D01*
X71353834Y75350120D01*
X71639549Y75278691D01*
X71782406Y75207263D01*
X71925263Y75064405D01*
X71996691Y74850120D01*
X71996691Y74707263D01*
X71925263Y74492977D01*
X71853834Y74421548D01*
X71353834Y74421548D01*
X71353834Y74707263D01*
X71996691Y73778691D02*
X70496691Y73778691D01*
X71996691Y72921548D01*
X70496691Y72921548D01*
X71996691Y72207262D02*
X70496691Y72207262D01*
X70496691Y71850119D01*
X70568120Y71635834D01*
X70710977Y71492976D01*
X70853834Y71421548D01*
X71139549Y71350119D01*
X71353834Y71350119D01*
X71639549Y71421548D01*
X71782406Y71492976D01*
X71925263Y71635834D01*
X71996691Y71850119D01*
X71996691Y72207262D01*
X70496691Y70270120D02*
X71996691Y69770120D01*
X70496691Y69270120D01*
X71853834Y67912977D02*
X71925263Y67984406D01*
X71996691Y68198692D01*
X71996691Y68341549D01*
X71925263Y68555834D01*
X71782406Y68698692D01*
X71639549Y68770120D01*
X71353834Y68841549D01*
X71139549Y68841549D01*
X70853834Y68770120D01*
X70710977Y68698692D01*
X70568120Y68555834D01*
X70496691Y68341549D01*
X70496691Y68198692D01*
X70568120Y67984406D01*
X70639549Y67912977D01*
X71853834Y66412977D02*
X71925263Y66484406D01*
X71996691Y66698692D01*
X71996691Y66841549D01*
X71925263Y67055834D01*
X71782406Y67198692D01*
X71639549Y67270120D01*
X71353834Y67341549D01*
X71139549Y67341549D01*
X70853834Y67270120D01*
X70710977Y67198692D01*
X70568120Y67055834D01*
X70496691Y66841549D01*
X70496691Y66698692D01*
X70568120Y66484406D01*
X70639549Y66412977D01*
D12*
X72588120Y76144120D02*
X72588120Y45283120D01*
D13*
X8028549Y10846692D02*
X8028549Y9989549D01*
X8028549Y10418121D02*
X9528549Y10418121D01*
X9314263Y10275264D01*
X9171406Y10132406D01*
X9099977Y9989549D01*
X9385691Y11418120D02*
X9457120Y11489549D01*
X9528549Y11632406D01*
X9528549Y11989549D01*
X9457120Y12132406D01*
X9385691Y12203835D01*
X9242834Y12275263D01*
X9099977Y12275263D01*
X8885691Y12203835D01*
X8028549Y11346692D01*
X8028549Y12275263D01*
X9528549Y12703834D02*
X8028549Y13203834D01*
X9528549Y13703834D01*
X8028549Y15346691D02*
X9528549Y15346691D01*
X8028549Y16060977D02*
X9528549Y16060977D01*
X9528549Y16418120D01*
X9457120Y16632405D01*
X9314263Y16775263D01*
X9171406Y16846691D01*
X8885691Y16918120D01*
X8671406Y16918120D01*
X8385691Y16846691D01*
X8242834Y16775263D01*
X8099977Y16632405D01*
X8028549Y16418120D01*
X8028549Y16060977D01*
X9385691Y17489548D02*
X9457120Y17560977D01*
X9528549Y17703834D01*
X9528549Y18060977D01*
X9457120Y18203834D01*
X9385691Y18275263D01*
X9242834Y18346691D01*
X9099977Y18346691D01*
X8885691Y18275263D01*
X8028549Y17418120D01*
X8028549Y18346691D01*
X8028549Y41961692D02*
X8028549Y41104549D01*
X8028549Y41533121D02*
X9528549Y41533121D01*
X9314263Y41390264D01*
X9171406Y41247406D01*
X9099977Y41104549D01*
X9385691Y42533120D02*
X9457120Y42604549D01*
X9528549Y42747406D01*
X9528549Y43104549D01*
X9457120Y43247406D01*
X9385691Y43318835D01*
X9242834Y43390263D01*
X9099977Y43390263D01*
X8885691Y43318835D01*
X8028549Y42461692D01*
X8028549Y43390263D01*
X9528549Y43818834D02*
X8028549Y44318834D01*
X9528549Y44818834D01*
X8028549Y46461691D02*
X9528549Y46461691D01*
X8028549Y47175977D02*
X9528549Y47175977D01*
X9528549Y47533120D01*
X9457120Y47747405D01*
X9314263Y47890263D01*
X9171406Y47961691D01*
X8885691Y48033120D01*
X8671406Y48033120D01*
X8385691Y47961691D01*
X8242834Y47890263D01*
X8099977Y47747405D01*
X8028549Y47533120D01*
X8028549Y47175977D01*
X8028549Y49461691D02*
X8028549Y48604548D01*
X8028549Y49033120D02*
X9528549Y49033120D01*
X9314263Y48890263D01*
X9171406Y48747405D01*
X9099977Y48604548D01*
X2472120Y28519263D02*
X2543549Y28376406D01*
X2543549Y28162120D01*
X2472120Y27947835D01*
X2329263Y27804977D01*
X2186406Y27733549D01*
X1900691Y27662120D01*
X1686406Y27662120D01*
X1400691Y27733549D01*
X1257834Y27804977D01*
X1114977Y27947835D01*
X1043549Y28162120D01*
X1043549Y28304977D01*
X1114977Y28519263D01*
X1186406Y28590692D01*
X1686406Y28590692D01*
X1686406Y28304977D01*
X1043549Y29233549D02*
X2543549Y29233549D01*
X1043549Y30090692D01*
X2543549Y30090692D01*
X1043549Y30804978D02*
X2543549Y30804978D01*
X2543549Y31162121D01*
X2472120Y31376406D01*
X2329263Y31519264D01*
X2186406Y31590692D01*
X1900691Y31662121D01*
X1686406Y31662121D01*
X1400691Y31590692D01*
X1257834Y31519264D01*
X1114977Y31376406D01*
X1043549Y31162121D01*
X1043549Y30804978D01*
X1043549Y13239549D02*
X1043549Y12382406D01*
X1043549Y12810978D02*
X2543549Y12810978D01*
X2329263Y12668121D01*
X2186406Y12525263D01*
X2114977Y12382406D01*
X2400691Y13810977D02*
X2472120Y13882406D01*
X2543549Y14025263D01*
X2543549Y14382406D01*
X2472120Y14525263D01*
X2400691Y14596692D01*
X2257834Y14668120D01*
X2114977Y14668120D01*
X1900691Y14596692D01*
X1043549Y13739549D01*
X1043549Y14668120D01*
X2543549Y15096691D02*
X1043549Y15596691D01*
X2543549Y16096691D01*
X1043549Y44354549D02*
X1043549Y43497406D01*
X1043549Y43925978D02*
X2543549Y43925978D01*
X2329263Y43783121D01*
X2186406Y43640263D01*
X2114977Y43497406D01*
X2400691Y44925977D02*
X2472120Y44997406D01*
X2543549Y45140263D01*
X2543549Y45497406D01*
X2472120Y45640263D01*
X2400691Y45711692D01*
X2257834Y45783120D01*
X2114977Y45783120D01*
X1900691Y45711692D01*
X1043549Y44854549D01*
X1043549Y45783120D01*
X2543549Y46211691D02*
X1043549Y46711691D01*
X2543549Y47211691D01*
D12*
X325120Y19248120D02*
X10231120Y19248120D01*
X325120Y40076120D02*
X10231120Y40076120D01*
X325120Y50617120D02*
X10231120Y50617120D01*
X325120Y8834120D02*
X10231120Y8834120D01*
X10231120Y54681120D02*
X10231120Y8834120D01*
X325120Y50617120D02*
X325120Y8834120D01*
D13*
X11358358Y58286072D02*
X11358358Y57143214D01*
X11358358Y57714643D02*
X13358358Y57714643D01*
X13072644Y57524167D01*
X12882168Y57333691D01*
X12786930Y57143214D01*
X13167882Y59047976D02*
X13263120Y59143214D01*
X13358358Y59333691D01*
X13358358Y59809881D01*
X13263120Y60000357D01*
X13167882Y60095595D01*
X12977406Y60190834D01*
X12786930Y60190834D01*
X12501215Y60095595D01*
X11358358Y58952738D01*
X11358358Y60190834D01*
X13358358Y60762262D02*
X11358358Y61428929D01*
X13358358Y62095596D01*
X11358358Y64286072D02*
X13358358Y64286072D01*
X11929787Y64952739D01*
X13358358Y65619406D01*
X11358358Y65619406D01*
X11929787Y66476548D02*
X11929787Y67428929D01*
X11358358Y66286072D02*
X13358358Y66952739D01*
X11358358Y67619406D01*
X11358358Y68286072D02*
X13358358Y68286072D01*
X11358358Y69238453D02*
X13358358Y69238453D01*
X11358358Y70381311D01*
X13358358Y70381311D01*
X11358358Y72857501D02*
X13358358Y72857501D01*
X11358358Y73809882D02*
X13358358Y73809882D01*
X11358358Y74952740D01*
X13358358Y74952740D01*
X11358358Y75905120D02*
X13358358Y75905120D01*
X13358358Y76667025D01*
X13263120Y76857501D01*
X13167882Y76952740D01*
X12977406Y77047978D01*
X12691691Y77047978D01*
X12501215Y76952740D01*
X12405977Y76857501D01*
X12310739Y76667025D01*
X12310739Y75905120D01*
X13358358Y77905120D02*
X11739310Y77905120D01*
X11548834Y78000359D01*
X11453596Y78095597D01*
X11358358Y78286073D01*
X11358358Y78667025D01*
X11453596Y78857501D01*
X11548834Y78952740D01*
X11739310Y79047978D01*
X13358358Y79047978D01*
X13358358Y79714644D02*
X13358358Y80857501D01*
X11358358Y80286073D02*
X13358358Y80286073D01*
D12*
X325120Y75763120D02*
X10231120Y75763120D01*
X325120Y65222120D02*
X10231120Y65222120D01*
X10231120Y54681120D02*
X325120Y54681120D01*
X10231120Y54808120D02*
X10231120Y54681120D01*
X10231120Y86177120D02*
X10231120Y54808120D01*
X325120Y86177120D02*
X10231120Y86177120D01*
D13*
X8282549Y56693692D02*
X8282549Y55836549D01*
X8282549Y56265121D02*
X9782549Y56265121D01*
X9568263Y56122264D01*
X9425406Y55979406D01*
X9353977Y55836549D01*
X9639691Y57265120D02*
X9711120Y57336549D01*
X9782549Y57479406D01*
X9782549Y57836549D01*
X9711120Y57979406D01*
X9639691Y58050835D01*
X9496834Y58122263D01*
X9353977Y58122263D01*
X9139691Y58050835D01*
X8282549Y57193692D01*
X8282549Y58122263D01*
X9782549Y58550834D02*
X8282549Y59050834D01*
X9782549Y59550834D01*
X8282549Y61193691D02*
X9782549Y61193691D01*
X8282549Y61907977D02*
X9782549Y61907977D01*
X9782549Y62265120D01*
X9711120Y62479405D01*
X9568263Y62622263D01*
X9425406Y62693691D01*
X9139691Y62765120D01*
X8925406Y62765120D01*
X8639691Y62693691D01*
X8496834Y62622263D01*
X8353977Y62479405D01*
X8282549Y62265120D01*
X8282549Y61907977D01*
X9639691Y63336548D02*
X9711120Y63407977D01*
X9782549Y63550834D01*
X9782549Y63907977D01*
X9711120Y64050834D01*
X9639691Y64122263D01*
X9496834Y64193691D01*
X9353977Y64193691D01*
X9139691Y64122263D01*
X8282549Y63265120D01*
X8282549Y64193691D01*
X8282549Y67361692D02*
X8282549Y66504549D01*
X8282549Y66933121D02*
X9782549Y66933121D01*
X9568263Y66790264D01*
X9425406Y66647406D01*
X9353977Y66504549D01*
X9639691Y67933120D02*
X9711120Y68004549D01*
X9782549Y68147406D01*
X9782549Y68504549D01*
X9711120Y68647406D01*
X9639691Y68718835D01*
X9496834Y68790263D01*
X9353977Y68790263D01*
X9139691Y68718835D01*
X8282549Y67861692D01*
X8282549Y68790263D01*
X9782549Y69218834D02*
X8282549Y69718834D01*
X9782549Y70218834D01*
X8282549Y71861691D02*
X9782549Y71861691D01*
X8282549Y72575977D02*
X9782549Y72575977D01*
X9782549Y72933120D01*
X9711120Y73147405D01*
X9568263Y73290263D01*
X9425406Y73361691D01*
X9139691Y73433120D01*
X8925406Y73433120D01*
X8639691Y73361691D01*
X8496834Y73290263D01*
X8353977Y73147405D01*
X8282549Y72933120D01*
X8282549Y72575977D01*
X8282549Y74861691D02*
X8282549Y74004548D01*
X8282549Y74433120D02*
X9782549Y74433120D01*
X9568263Y74290263D01*
X9425406Y74147405D01*
X9353977Y74004548D01*
X1170549Y56673549D02*
X1170549Y55816406D01*
X1170549Y56244978D02*
X2670549Y56244978D01*
X2456263Y56102121D01*
X2313406Y55959263D01*
X2241977Y55816406D01*
X2527691Y57244977D02*
X2599120Y57316406D01*
X2670549Y57459263D01*
X2670549Y57816406D01*
X2599120Y57959263D01*
X2527691Y58030692D01*
X2384834Y58102120D01*
X2241977Y58102120D01*
X2027691Y58030692D01*
X1170549Y57173549D01*
X1170549Y58102120D01*
X2670549Y58530691D02*
X1170549Y59030691D01*
X2670549Y59530691D01*
X2599120Y61412263D02*
X2670549Y61269406D01*
X2670549Y61055120D01*
X2599120Y60840835D01*
X2456263Y60697977D01*
X2313406Y60626549D01*
X2027691Y60555120D01*
X1813406Y60555120D01*
X1527691Y60626549D01*
X1384834Y60697977D01*
X1241977Y60840835D01*
X1170549Y61055120D01*
X1170549Y61197977D01*
X1241977Y61412263D01*
X1313406Y61483692D01*
X1813406Y61483692D01*
X1813406Y61197977D01*
X1170549Y62126549D02*
X2670549Y62126549D01*
X1170549Y62983692D01*
X2670549Y62983692D01*
X1170549Y63697978D02*
X2670549Y63697978D01*
X2670549Y64055121D01*
X2599120Y64269406D01*
X2456263Y64412264D01*
X2313406Y64483692D01*
X2027691Y64555121D01*
X1813406Y64555121D01*
X1527691Y64483692D01*
X1384834Y64412264D01*
X1241977Y64269406D01*
X1170549Y64055121D01*
X1170549Y63697978D01*
X1297549Y67214549D02*
X1297549Y66357406D01*
X1297549Y66785978D02*
X2797549Y66785978D01*
X2583263Y66643121D01*
X2440406Y66500263D01*
X2368977Y66357406D01*
X2654691Y67785977D02*
X2726120Y67857406D01*
X2797549Y68000263D01*
X2797549Y68357406D01*
X2726120Y68500263D01*
X2654691Y68571692D01*
X2511834Y68643120D01*
X2368977Y68643120D01*
X2154691Y68571692D01*
X1297549Y67714549D01*
X1297549Y68643120D01*
X2797549Y69071691D02*
X1297549Y69571691D01*
X2797549Y70071691D01*
X2726120Y71953263D02*
X2797549Y71810406D01*
X2797549Y71596120D01*
X2726120Y71381835D01*
X2583263Y71238977D01*
X2440406Y71167549D01*
X2154691Y71096120D01*
X1940406Y71096120D01*
X1654691Y71167549D01*
X1511834Y71238977D01*
X1368977Y71381835D01*
X1297549Y71596120D01*
X1297549Y71738977D01*
X1368977Y71953263D01*
X1440406Y72024692D01*
X1940406Y72024692D01*
X1940406Y71738977D01*
X1297549Y72667549D02*
X2797549Y72667549D01*
X1297549Y73524692D01*
X2797549Y73524692D01*
X1297549Y74238978D02*
X2797549Y74238978D01*
X2797549Y74596121D01*
X2726120Y74810406D01*
X2583263Y74953264D01*
X2440406Y75024692D01*
X2154691Y75096121D01*
X1940406Y75096121D01*
X1654691Y75024692D01*
X1511834Y74953264D01*
X1368977Y74810406D01*
X1297549Y74596121D01*
X1297549Y74238978D01*
X8282549Y77775692D02*
X8282549Y76918549D01*
X8282549Y77347121D02*
X9782549Y77347121D01*
X9568263Y77204264D01*
X9425406Y77061406D01*
X9353977Y76918549D01*
X9639691Y78347120D02*
X9711120Y78418549D01*
X9782549Y78561406D01*
X9782549Y78918549D01*
X9711120Y79061406D01*
X9639691Y79132835D01*
X9496834Y79204263D01*
X9353977Y79204263D01*
X9139691Y79132835D01*
X8282549Y78275692D01*
X8282549Y79204263D01*
X9782549Y79632834D02*
X8282549Y80132834D01*
X9782549Y80632834D01*
X8282549Y82275691D02*
X9782549Y82275691D01*
X8282549Y82989977D02*
X9782549Y82989977D01*
X9782549Y83347120D01*
X9711120Y83561405D01*
X9568263Y83704263D01*
X9425406Y83775691D01*
X9139691Y83847120D01*
X8925406Y83847120D01*
X8639691Y83775691D01*
X8496834Y83704263D01*
X8353977Y83561405D01*
X8282549Y83347120D01*
X8282549Y82989977D01*
X9782549Y84347120D02*
X9782549Y85275691D01*
X9211120Y84775691D01*
X9211120Y84989977D01*
X9139691Y85132834D01*
X9068263Y85204263D01*
X8925406Y85275691D01*
X8568263Y85275691D01*
X8425406Y85204263D01*
X8353977Y85132834D01*
X8282549Y84989977D01*
X8282549Y84561405D01*
X8353977Y84418548D01*
X8425406Y84347120D01*
X1297549Y77755549D02*
X1297549Y76898406D01*
X1297549Y77326978D02*
X2797549Y77326978D01*
X2583263Y77184121D01*
X2440406Y77041263D01*
X2368977Y76898406D01*
X2654691Y78326977D02*
X2726120Y78398406D01*
X2797549Y78541263D01*
X2797549Y78898406D01*
X2726120Y79041263D01*
X2654691Y79112692D01*
X2511834Y79184120D01*
X2368977Y79184120D01*
X2154691Y79112692D01*
X1297549Y78255549D01*
X1297549Y79184120D01*
X2797549Y79612691D02*
X1297549Y80112691D01*
X2797549Y80612691D01*
X2726120Y82621263D02*
X2797549Y82478406D01*
X2797549Y82264120D01*
X2726120Y82049835D01*
X2583263Y81906977D01*
X2440406Y81835549D01*
X2154691Y81764120D01*
X1940406Y81764120D01*
X1654691Y81835549D01*
X1511834Y81906977D01*
X1368977Y82049835D01*
X1297549Y82264120D01*
X1297549Y82406977D01*
X1368977Y82621263D01*
X1440406Y82692692D01*
X1940406Y82692692D01*
X1940406Y82406977D01*
X1297549Y83335549D02*
X2797549Y83335549D01*
X1297549Y84192692D01*
X2797549Y84192692D01*
X1297549Y84906978D02*
X2797549Y84906978D01*
X2797549Y85264121D01*
X2726120Y85478406D01*
X2583263Y85621264D01*
X2440406Y85692692D01*
X2154691Y85764121D01*
X1940406Y85764121D01*
X1654691Y85692692D01*
X1511834Y85621264D01*
X1368977Y85478406D01*
X1297549Y85264121D01*
X1297549Y84906978D01*
D12*
X325120Y54681120D02*
X325120Y86177120D01*
D14*
G36*
X23173175Y49014745D02*
X23008435Y49003081D01*
X22385279Y48920222D01*
X21790236Y48780432D01*
X21222983Y48583559D01*
X20683195Y48329446D01*
X20170548Y48017939D01*
X19684718Y47648885D01*
X19225380Y47222129D01*
X19187795Y47183446D01*
X18899711Y46866976D01*
X18654298Y46555788D01*
X18436712Y46228947D01*
X18232110Y45865517D01*
X18176697Y45757470D01*
X17924192Y45188238D01*
X17733888Y44607563D01*
X17605947Y44017548D01*
X17540531Y43420301D01*
X17537804Y42817924D01*
X17597927Y42212524D01*
X17721065Y41606206D01*
X17827346Y41236314D01*
X18037588Y40681397D01*
X18303843Y40152470D01*
X18622624Y39653343D01*
X18990444Y39187828D01*
X19403814Y38759736D01*
X19859247Y38372878D01*
X20353257Y38031065D01*
X20882354Y37738108D01*
X21135442Y37621288D01*
X21373489Y37525782D01*
X21565068Y37467257D01*
X21715190Y37445515D01*
X21828865Y37460360D01*
X21911103Y37511594D01*
X21962413Y37588728D01*
X21974263Y37649062D01*
X21983702Y37772622D01*
X21990724Y37959179D01*
X21995322Y38208505D01*
X21997487Y38520372D01*
X21997670Y38658069D01*
X21998338Y38958975D01*
X22000534Y39203513D01*
X22004545Y39398799D01*
X22010660Y39551953D01*
X22019166Y39670093D01*
X22030351Y39760338D01*
X22044502Y39829807D01*
X22045144Y39832293D01*
X22118990Y40054348D01*
X22213776Y40243288D01*
X22306353Y40367328D01*
X22385799Y40452161D01*
X22231422Y40473981D01*
X21775423Y40557526D01*
X21371736Y40672567D01*
X21016663Y40820678D01*
X20706509Y41003437D01*
X20437574Y41222418D01*
X20407997Y41251106D01*
X20285551Y41377561D01*
X20192350Y41490447D01*
X20112883Y41611623D01*
X20031643Y41762950D01*
X20001150Y41824563D01*
X19897127Y42053539D01*
X19818665Y42268099D01*
X19762685Y42483412D01*
X19726110Y42714645D01*
X19705861Y42976967D01*
X19698860Y43285544D01*
X19698777Y43314620D01*
X19699064Y43519715D01*
X19701592Y43674657D01*
X19707750Y43792790D01*
X19718928Y43887454D01*
X19736513Y43971992D01*
X19761894Y44059747D01*
X19783033Y44124245D01*
X19903113Y44415151D01*
X20060753Y44695892D01*
X20188511Y44874903D01*
X20244531Y44952937D01*
X20263900Y45012358D01*
X20254027Y45080282D01*
X20249230Y45097153D01*
X20194568Y45368000D01*
X20177129Y45668257D01*
X20196314Y45976328D01*
X20251522Y46270617D01*
X20284994Y46383974D01*
X20322603Y46491254D01*
X20353046Y46551426D01*
X20387878Y46578062D01*
X20438654Y46584732D01*
X20456051Y46584871D01*
X20669031Y46563154D01*
X20916176Y46500609D01*
X21186583Y46401141D01*
X21469351Y46268657D01*
X21702634Y46138221D01*
X21979497Y45971592D01*
X22330799Y46040998D01*
X22908824Y46123877D01*
X23503389Y46148669D01*
X24105900Y46115602D01*
X24707765Y46024903D01*
X24950420Y45971574D01*
X24982451Y45985257D01*
X25057233Y46025283D01*
X25163121Y46085231D01*
X25271119Y46148378D01*
X25533560Y46291866D01*
X25791770Y46410449D01*
X26035851Y46500716D01*
X26255904Y46559257D01*
X26442032Y46582663D01*
X26523088Y46579707D01*
X26570636Y46570117D01*
X26604960Y46545776D01*
X26634261Y46493922D01*
X26666742Y46401794D01*
X26693229Y46314995D01*
X26734487Y46131109D01*
X26761110Y45916173D01*
X26772675Y45689209D01*
X26768761Y45469240D01*
X26748947Y45275286D01*
X26719149Y45144659D01*
X26669014Y44990323D01*
X26798993Y44827159D01*
X26927168Y44637645D01*
X27046417Y44409020D01*
X27145601Y44165633D01*
X27213582Y43931836D01*
X27217959Y43911272D01*
X27250050Y43685934D01*
X27264903Y43421085D01*
X27262491Y43138337D01*
X27242787Y42859301D01*
X27219429Y42682272D01*
X27134241Y42289109D01*
X27012269Y41942789D01*
X26850045Y41636098D01*
X26644104Y41361823D01*
X26524073Y41234995D01*
X26250659Y41005822D01*
X25935575Y40816448D01*
X25575504Y40665351D01*
X25167127Y40551008D01*
X24934545Y40505564D01*
X24800703Y40482048D01*
X24692617Y40461612D01*
X24624029Y40446941D01*
X24606936Y40441601D01*
X24618898Y40413254D01*
X24660346Y40350515D01*
X24704032Y40291164D01*
X24774962Y40177720D01*
X24839323Y40040893D01*
X24867103Y39962606D01*
X24901891Y39849522D01*
X24933928Y39752122D01*
X24951319Y39704308D01*
X25007735Y39642742D01*
X25117349Y39591131D01*
X25270283Y39552116D01*
X25456657Y39528337D01*
X25633045Y39522074D01*
X25784050Y39525522D01*
X25894545Y39537430D01*
X25987382Y39562091D01*
X26085414Y39603794D01*
X26096379Y39609064D01*
X26292332Y39734603D01*
X26485724Y39918614D01*
X26671449Y40156120D01*
X26697796Y40195243D01*
X26870370Y40412116D01*
X27066314Y40579910D01*
X27278876Y40694367D01*
X27501304Y40751232D01*
X27588642Y40756873D01*
X27734500Y40746806D01*
X27821596Y40713586D01*
X27849890Y40658230D01*
X27819342Y40581751D01*
X27729912Y40485167D01*
X27603392Y40385008D01*
X27451732Y40264987D01*
X27324506Y40136563D01*
X27210411Y39985391D01*
X27098147Y39797129D01*
X27017429Y39641296D01*
X26912335Y39441173D01*
X26816933Y39288337D01*
X26720918Y39169805D01*
X26613985Y39072594D01*
X26505234Y38996020D01*
X26268251Y38876187D01*
X25995989Y38799463D01*
X25684494Y38765209D01*
X25329809Y38772788D01*
X25196483Y38785017D01*
X24950420Y38811538D01*
X24950420Y38223890D01*
X24950633Y38017335D01*
X24952065Y37864334D01*
X24955909Y37754942D01*
X24963359Y37679213D01*
X24975607Y37627202D01*
X24993847Y37588962D01*
X25019270Y37554548D01*
X25032618Y37538557D01*
X25104459Y37475477D01*
X25192780Y37444732D01*
X25306513Y37446684D01*
X25454592Y37481699D01*
X25645950Y37550139D01*
X25683278Y37565064D01*
X26214434Y37808163D01*
X26704810Y38093008D01*
X27165636Y38426849D01*
X27579123Y38789168D01*
X27994907Y39227166D01*
X28358287Y39697296D01*
X28668861Y40195253D01*
X28926229Y40716728D01*
X29129990Y41257416D01*
X29279744Y41813009D01*
X29375089Y42379200D01*
X29415626Y42951684D01*
X29400953Y43526152D01*
X29330670Y44098298D01*
X29204376Y44663816D01*
X29021671Y45218398D01*
X28782153Y45757738D01*
X28485422Y46277529D01*
X28301051Y46548858D01*
X27923906Y47019623D01*
X27504716Y47446090D01*
X27047944Y47826190D01*
X26558053Y48157852D01*
X26039507Y48439008D01*
X25496770Y48667588D01*
X24934304Y48841521D01*
X24356574Y48958738D01*
X23768043Y49017170D01*
X23173175Y49014745D01*
X23173175Y49014745D01*
G37*
X23173175Y49014745D02*
X23008435Y49003081D01*
X22385279Y48920222D01*
X21790236Y48780432D01*
X21222983Y48583559D01*
X20683195Y48329446D01*
X20170548Y48017939D01*
X19684718Y47648885D01*
X19225380Y47222129D01*
X19187795Y47183446D01*
X18899711Y46866976D01*
X18654298Y46555788D01*
X18436712Y46228947D01*
X18232110Y45865517D01*
X18176697Y45757470D01*
X17924192Y45188238D01*
X17733888Y44607563D01*
X17605947Y44017548D01*
X17540531Y43420301D01*
X17537804Y42817924D01*
X17597927Y42212524D01*
X17721065Y41606206D01*
X17827346Y41236314D01*
X18037588Y40681397D01*
X18303843Y40152470D01*
X18622624Y39653343D01*
X18990444Y39187828D01*
X19403814Y38759736D01*
X19859247Y38372878D01*
X20353257Y38031065D01*
X20882354Y37738108D01*
X21135442Y37621288D01*
X21373489Y37525782D01*
X21565068Y37467257D01*
X21715190Y37445515D01*
X21828865Y37460360D01*
X21911103Y37511594D01*
X21962413Y37588728D01*
X21974263Y37649062D01*
X21983702Y37772622D01*
X21990724Y37959179D01*
X21995322Y38208505D01*
X21997487Y38520372D01*
X21997670Y38658069D01*
X21998338Y38958975D01*
X22000534Y39203513D01*
X22004545Y39398799D01*
X22010660Y39551953D01*
X22019166Y39670093D01*
X22030351Y39760338D01*
X22044502Y39829807D01*
X22045144Y39832293D01*
X22118990Y40054348D01*
X22213776Y40243288D01*
X22306353Y40367328D01*
X22385799Y40452161D01*
X22231422Y40473981D01*
X21775423Y40557526D01*
X21371736Y40672567D01*
X21016663Y40820678D01*
X20706509Y41003437D01*
X20437574Y41222418D01*
X20407997Y41251106D01*
X20285551Y41377561D01*
X20192350Y41490447D01*
X20112883Y41611623D01*
X20031643Y41762950D01*
X20001150Y41824563D01*
X19897127Y42053539D01*
X19818665Y42268099D01*
X19762685Y42483412D01*
X19726110Y42714645D01*
X19705861Y42976967D01*
X19698860Y43285544D01*
X19698777Y43314620D01*
X19699064Y43519715D01*
X19701592Y43674657D01*
X19707750Y43792790D01*
X19718928Y43887454D01*
X19736513Y43971992D01*
X19761894Y44059747D01*
X19783033Y44124245D01*
X19903113Y44415151D01*
X20060753Y44695892D01*
X20188511Y44874903D01*
X20244531Y44952937D01*
X20263900Y45012358D01*
X20254027Y45080282D01*
X20249230Y45097153D01*
X20194568Y45368000D01*
X20177129Y45668257D01*
X20196314Y45976328D01*
X20251522Y46270617D01*
X20284994Y46383974D01*
X20322603Y46491254D01*
X20353046Y46551426D01*
X20387878Y46578062D01*
X20438654Y46584732D01*
X20456051Y46584871D01*
X20669031Y46563154D01*
X20916176Y46500609D01*
X21186583Y46401141D01*
X21469351Y46268657D01*
X21702634Y46138221D01*
X21979497Y45971592D01*
X22330799Y46040998D01*
X22908824Y46123877D01*
X23503389Y46148669D01*
X24105900Y46115602D01*
X24707765Y46024903D01*
X24950420Y45971574D01*
X24982451Y45985257D01*
X25057233Y46025283D01*
X25163121Y46085231D01*
X25271119Y46148378D01*
X25533560Y46291866D01*
X25791770Y46410449D01*
X26035851Y46500716D01*
X26255904Y46559257D01*
X26442032Y46582663D01*
X26523088Y46579707D01*
X26570636Y46570117D01*
X26604960Y46545776D01*
X26634261Y46493922D01*
X26666742Y46401794D01*
X26693229Y46314995D01*
X26734487Y46131109D01*
X26761110Y45916173D01*
X26772675Y45689209D01*
X26768761Y45469240D01*
X26748947Y45275286D01*
X26719149Y45144659D01*
X26669014Y44990323D01*
X26798993Y44827159D01*
X26927168Y44637645D01*
X27046417Y44409020D01*
X27145601Y44165633D01*
X27213582Y43931836D01*
X27217959Y43911272D01*
X27250050Y43685934D01*
X27264903Y43421085D01*
X27262491Y43138337D01*
X27242787Y42859301D01*
X27219429Y42682272D01*
X27134241Y42289109D01*
X27012269Y41942789D01*
X26850045Y41636098D01*
X26644104Y41361823D01*
X26524073Y41234995D01*
X26250659Y41005822D01*
X25935575Y40816448D01*
X25575504Y40665351D01*
X25167127Y40551008D01*
X24934545Y40505564D01*
X24800703Y40482048D01*
X24692617Y40461612D01*
X24624029Y40446941D01*
X24606936Y40441601D01*
X24618898Y40413254D01*
X24660346Y40350515D01*
X24704032Y40291164D01*
X24774962Y40177720D01*
X24839323Y40040893D01*
X24867103Y39962606D01*
X24901891Y39849522D01*
X24933928Y39752122D01*
X24951319Y39704308D01*
X25007735Y39642742D01*
X25117349Y39591131D01*
X25270283Y39552116D01*
X25456657Y39528337D01*
X25633045Y39522074D01*
X25784050Y39525522D01*
X25894545Y39537430D01*
X25987382Y39562091D01*
X26085414Y39603794D01*
X26096379Y39609064D01*
X26292332Y39734603D01*
X26485724Y39918614D01*
X26671449Y40156120D01*
X26697796Y40195243D01*
X26870370Y40412116D01*
X27066314Y40579910D01*
X27278876Y40694367D01*
X27501304Y40751232D01*
X27588642Y40756873D01*
X27734500Y40746806D01*
X27821596Y40713586D01*
X27849890Y40658230D01*
X27819342Y40581751D01*
X27729912Y40485167D01*
X27603392Y40385008D01*
X27451732Y40264987D01*
X27324506Y40136563D01*
X27210411Y39985391D01*
X27098147Y39797129D01*
X27017429Y39641296D01*
X26912335Y39441173D01*
X26816933Y39288337D01*
X26720918Y39169805D01*
X26613985Y39072594D01*
X26505234Y38996020D01*
X26268251Y38876187D01*
X25995989Y38799463D01*
X25684494Y38765209D01*
X25329809Y38772788D01*
X25196483Y38785017D01*
X24950420Y38811538D01*
X24950420Y38223890D01*
X24950633Y38017335D01*
X24952065Y37864334D01*
X24955909Y37754942D01*
X24963359Y37679213D01*
X24975607Y37627202D01*
X24993847Y37588962D01*
X25019270Y37554548D01*
X25032618Y37538557D01*
X25104459Y37475477D01*
X25192780Y37444732D01*
X25306513Y37446684D01*
X25454592Y37481699D01*
X25645950Y37550139D01*
X25683278Y37565064D01*
X26214434Y37808163D01*
X26704810Y38093008D01*
X27165636Y38426849D01*
X27579123Y38789168D01*
X27994907Y39227166D01*
X28358287Y39697296D01*
X28668861Y40195253D01*
X28926229Y40716728D01*
X29129990Y41257416D01*
X29279744Y41813009D01*
X29375089Y42379200D01*
X29415626Y42951684D01*
X29400953Y43526152D01*
X29330670Y44098298D01*
X29204376Y44663816D01*
X29021671Y45218398D01*
X28782153Y45757738D01*
X28485422Y46277529D01*
X28301051Y46548858D01*
X27923906Y47019623D01*
X27504716Y47446090D01*
X27047944Y47826190D01*
X26558053Y48157852D01*
X26039507Y48439008D01*
X25496770Y48667588D01*
X24934304Y48841521D01*
X24356574Y48958738D01*
X23768043Y49017170D01*
X23173175Y49014745D01*
G36*
X25508960Y39390220D02*
X25464348Y39353153D01*
X25470863Y39308085D01*
X25520595Y39270393D01*
X25577743Y39256546D01*
X25649588Y39256457D01*
X25677586Y39281537D01*
X25680670Y39309969D01*
X25654087Y39369519D01*
X25588849Y39399369D01*
X25508960Y39390220D01*
X25508960Y39390220D01*
G37*
X25508960Y39390220D02*
X25464348Y39353153D01*
X25470863Y39308085D01*
X25520595Y39270393D01*
X25577743Y39256546D01*
X25649588Y39256457D01*
X25677586Y39281537D01*
X25680670Y39309969D01*
X25654087Y39369519D01*
X25588849Y39399369D01*
X25508960Y39390220D01*
G36*
X25045670Y39441120D02*
X24992855Y39407538D01*
X24992424Y39376258D01*
X25032063Y39332263D01*
X25102188Y39288792D01*
X25185355Y39299113D01*
X25196483Y39303398D01*
X25233386Y39343062D01*
X25221816Y39397353D01*
X25172670Y39441120D01*
X25091481Y39457736D01*
X25045670Y39441120D01*
X25045670Y39441120D01*
G37*
X25045670Y39441120D02*
X24992855Y39407538D01*
X24992424Y39376258D01*
X25032063Y39332263D01*
X25102188Y39288792D01*
X25185355Y39299113D01*
X25196483Y39303398D01*
X25233386Y39343062D01*
X25221816Y39397353D01*
X25172670Y39441120D01*
X25091481Y39457736D01*
X25045670Y39441120D01*
G36*
X26007413Y39454400D02*
X25956311Y39410688D01*
X25944398Y39359284D01*
X25949686Y39347261D01*
X25999415Y39318441D01*
X26073467Y39318767D01*
X26140810Y39346268D01*
X26155766Y39360355D01*
X26178614Y39419183D01*
X26145768Y39460205D01*
X26079559Y39472870D01*
X26007413Y39454400D01*
X26007413Y39454400D01*
G37*
X26007413Y39454400D02*
X25956311Y39410688D01*
X25944398Y39359284D01*
X25949686Y39347261D01*
X25999415Y39318441D01*
X26073467Y39318767D01*
X26140810Y39346268D01*
X26155766Y39360355D01*
X26178614Y39419183D01*
X26145768Y39460205D01*
X26079559Y39472870D01*
X26007413Y39454400D01*
G36*
X26450911Y39705306D02*
X26396871Y39655109D01*
X26364617Y39598019D01*
X26366493Y39562946D01*
X26413349Y39538355D01*
X26481355Y39545319D01*
X26531570Y39574470D01*
X26567046Y39636908D01*
X26561887Y39695027D01*
X26519637Y39725955D01*
X26507971Y39726870D01*
X26450911Y39705306D01*
X26450911Y39705306D01*
G37*
X26450911Y39705306D02*
X26396871Y39655109D01*
X26364617Y39598019D01*
X26366493Y39562946D01*
X26413349Y39538355D01*
X26481355Y39545319D01*
X26531570Y39574470D01*
X26567046Y39636908D01*
X26561887Y39695027D01*
X26519637Y39725955D01*
X26507971Y39726870D01*
X26450911Y39705306D01*
G36*
X26727772Y40050577D02*
X26687650Y39993290D01*
X26675442Y39933275D01*
X26681201Y39916714D01*
X26729995Y39887137D01*
X26792954Y39905300D01*
X26823335Y39932841D01*
X26847304Y39995764D01*
X26829165Y40052169D01*
X26778159Y40076120D01*
X26727772Y40050577D01*
X26727772Y40050577D01*
G37*
X26727772Y40050577D02*
X26687650Y39993290D01*
X26675442Y39933275D01*
X26681201Y39916714D01*
X26729995Y39887137D01*
X26792954Y39905300D01*
X26823335Y39932841D01*
X26847304Y39995764D01*
X26829165Y40052169D01*
X26778159Y40076120D01*
X26727772Y40050577D01*
G36*
X26980248Y40363092D02*
X26937177Y40325923D01*
X26924943Y40275047D01*
X26956870Y40220278D01*
X27009265Y40219814D01*
X27044707Y40249284D01*
X27069652Y40312410D01*
X27065819Y40346960D01*
X27030913Y40374078D01*
X26980248Y40363092D01*
X26980248Y40363092D01*
G37*
X26980248Y40363092D02*
X26937177Y40325923D01*
X26924943Y40275047D01*
X26956870Y40220278D01*
X27009265Y40219814D01*
X27044707Y40249284D01*
X27069652Y40312410D01*
X27065819Y40346960D01*
X27030913Y40374078D01*
X26980248Y40363092D01*
G36*
X27185565Y40541099D02*
X27185980Y40493500D01*
X27187086Y40491637D01*
X27231166Y40458994D01*
X27285442Y40488602D01*
X27299609Y40504370D01*
X27320774Y40546155D01*
X27286458Y40571711D01*
X27285487Y40572086D01*
X27225990Y40573226D01*
X27185565Y40541099D01*
X27185565Y40541099D01*
G37*
X27185565Y40541099D02*
X27185980Y40493500D01*
X27187086Y40491637D01*
X27231166Y40458994D01*
X27285442Y40488602D01*
X27299609Y40504370D01*
X27320774Y40546155D01*
X27286458Y40571711D01*
X27285487Y40572086D01*
X27225990Y40573226D01*
X27185565Y40541099D01*
G36*
X48654568Y47967912D02*
X48576898Y47967502D01*
X48509482Y47966840D01*
X48457129Y47965927D01*
X48424649Y47964763D01*
X48416241Y47963745D01*
X48409845Y47950218D01*
X48393602Y47913688D01*
X48368792Y47857092D01*
X48336693Y47783364D01*
X48298582Y47695441D01*
X48255738Y47596256D01*
X48211698Y47493997D01*
X48165530Y47386791D01*
X48122881Y47288026D01*
X48085028Y47200641D01*
X48053249Y47127577D01*
X48028824Y47071771D01*
X48013030Y47036164D01*
X48007183Y47023723D01*
X47992469Y47018604D01*
X47956302Y47008750D01*
X47904727Y46995756D01*
X47864275Y46986019D01*
X47784399Y46965800D01*
X47694006Y46940890D01*
X47609261Y46915792D01*
X47587249Y46908865D01*
X47448745Y46864472D01*
X47041340Y47169794D01*
X46934107Y47250014D01*
X46847036Y47314697D01*
X46777806Y47365364D01*
X46724099Y47403539D01*
X46683594Y47430746D01*
X46653972Y47448509D01*
X46632913Y47458351D01*
X46618098Y47461795D01*
X46607208Y47460365D01*
X46602269Y47458170D01*
X46580940Y47446048D01*
X46539497Y47421895D01*
X46482064Y47388135D01*
X46412763Y47347194D01*
X46335717Y47301499D01*
X46313389Y47288225D01*
X46056174Y47135226D01*
X46062503Y47081945D01*
X46065450Y47055226D01*
X46070866Y47004211D01*
X46078357Y46932682D01*
X46087532Y46844420D01*
X46097994Y46743205D01*
X46109352Y46632818D01*
X46116488Y46563222D01*
X46164145Y46097780D01*
X45997385Y45928222D01*
X45938538Y45868162D01*
X45883663Y45811739D01*
X45837126Y45763474D01*
X45803294Y45727890D01*
X45790411Y45713953D01*
X45750198Y45669241D01*
X45251316Y45725423D01*
X45136017Y45738277D01*
X45029940Y45749854D01*
X44936260Y45759824D01*
X44858154Y45767861D01*
X44798795Y45773638D01*
X44761360Y45776828D01*
X44749007Y45777190D01*
X44741460Y45764152D01*
X44722111Y45729913D01*
X44692895Y45677925D01*
X44655752Y45611637D01*
X44612616Y45534501D01*
X44581871Y45479442D01*
X44418163Y45186109D01*
X44668723Y44830331D01*
X44733401Y44738425D01*
X44794921Y44650879D01*
X44850817Y44571211D01*
X44898625Y44502937D01*
X44935881Y44449575D01*
X44960120Y44414641D01*
X44964701Y44407963D01*
X45010118Y44341373D01*
X44971981Y44210407D01*
X44952032Y44138448D01*
X44929624Y44052216D01*
X44908168Y43965042D01*
X44897521Y43919379D01*
X44861198Y43759316D01*
X43936920Y43334586D01*
X43936920Y42651300D01*
X44399059Y42438622D01*
X44861198Y42225945D01*
X44897521Y42066138D01*
X44916887Y41984541D01*
X44939182Y41896142D01*
X44960986Y41814301D01*
X44971981Y41775366D01*
X45010118Y41644400D01*
X44964701Y41577810D01*
X44945118Y41549474D01*
X44911735Y41501591D01*
X44867015Y41437678D01*
X44813424Y41361252D01*
X44753426Y41275830D01*
X44689485Y41184929D01*
X44668723Y41155442D01*
X44418163Y40799664D01*
X44581871Y40506331D01*
X44627893Y40423937D01*
X44669198Y40350120D01*
X44703848Y40288330D01*
X44729907Y40242019D01*
X44745439Y40214635D01*
X44748981Y40208608D01*
X44763283Y40209112D01*
X44802448Y40212496D01*
X44863303Y40218435D01*
X44942671Y40226602D01*
X45037379Y40236671D01*
X45144251Y40248316D01*
X45251291Y40260220D01*
X45750198Y40316220D01*
X45790411Y40271665D01*
X45813921Y40246519D01*
X45852904Y40205819D01*
X45902995Y40154083D01*
X45959826Y40095829D01*
X45997385Y40057551D01*
X46164145Y39887994D01*
X46116488Y39422551D01*
X46104780Y39308454D01*
X46093729Y39201242D01*
X46083728Y39104697D01*
X46075172Y39022598D01*
X46068454Y38958729D01*
X46063967Y38916868D01*
X46062503Y38903828D01*
X46056174Y38850547D01*
X46313389Y38697549D01*
X46391860Y38650959D01*
X46463738Y38608447D01*
X46524899Y38572439D01*
X46571220Y38545360D01*
X46598577Y38529636D01*
X46602269Y38527604D01*
X46612026Y38524220D01*
X46624486Y38524909D01*
X46641970Y38531194D01*
X46666797Y38544599D01*
X46701286Y38566647D01*
X46747757Y38598861D01*
X46808529Y38642765D01*
X46885923Y38699882D01*
X46982257Y38771736D01*
X47041340Y38815979D01*
X47448745Y39121301D01*
X47587249Y39076909D01*
X47667119Y39052637D01*
X47757511Y39027196D01*
X47842261Y39005088D01*
X47864275Y38999754D01*
X47922822Y38985543D01*
X47970040Y38973396D01*
X47999881Y38964907D01*
X48007152Y38962050D01*
X48013533Y38948398D01*
X48029757Y38911747D01*
X48054546Y38855039D01*
X48086621Y38781216D01*
X48124705Y38693217D01*
X48167520Y38593983D01*
X48211376Y38492067D01*
X48257506Y38384901D01*
X48300134Y38286190D01*
X48337981Y38198874D01*
X48369765Y38125892D01*
X48394209Y38070182D01*
X48410032Y38034683D01*
X48415911Y38022358D01*
X48431267Y38020412D01*
X48469984Y38018701D01*
X48527200Y38017251D01*
X48598055Y38016084D01*
X48677688Y38015227D01*
X48761239Y38014703D01*
X48843846Y38014537D01*
X48920649Y38014755D01*
X48986787Y38015380D01*
X49037399Y38016437D01*
X49067624Y38017951D01*
X49073861Y38019025D01*
X49081997Y38033262D01*
X49099862Y38070500D01*
X49126126Y38127775D01*
X49159458Y38202120D01*
X49198529Y38290573D01*
X49242010Y38390167D01*
X49285907Y38491747D01*
X49332076Y38598956D01*
X49374727Y38697725D01*
X49412582Y38785113D01*
X49444362Y38858182D01*
X49468789Y38913992D01*
X49484586Y38949603D01*
X49490435Y38962050D01*
X49505148Y38967169D01*
X49541316Y38977023D01*
X49592890Y38990017D01*
X49633343Y38999754D01*
X49713219Y39019973D01*
X49803612Y39044883D01*
X49888357Y39069981D01*
X49910368Y39076909D01*
X50048872Y39121301D01*
X50456278Y38815979D01*
X50563510Y38735759D01*
X50650582Y38671077D01*
X50719811Y38620410D01*
X50773519Y38582234D01*
X50814024Y38555027D01*
X50843646Y38537264D01*
X50864704Y38527422D01*
X50879519Y38523978D01*
X50890409Y38525409D01*
X50895349Y38527604D01*
X50916677Y38539725D01*
X50958120Y38563878D01*
X51015554Y38597638D01*
X51084855Y38638579D01*
X51161900Y38684274D01*
X51184228Y38697549D01*
X51441443Y38850547D01*
X51435115Y38903828D01*
X51432168Y38930547D01*
X51426752Y38981562D01*
X51419260Y39053091D01*
X51410086Y39141354D01*
X51399623Y39242568D01*
X51388265Y39352955D01*
X51381129Y39422551D01*
X51333472Y39887994D01*
X51500233Y40057551D01*
X51559079Y40117612D01*
X51613955Y40174035D01*
X51660492Y40222299D01*
X51694323Y40257883D01*
X51707207Y40271821D01*
X51747420Y40316532D01*
X52246301Y40260350D01*
X52361601Y40247496D01*
X52467678Y40235920D01*
X52561357Y40225949D01*
X52639464Y40217912D01*
X52698822Y40212135D01*
X52736257Y40208945D01*
X52748611Y40208583D01*
X52756157Y40221621D01*
X52775507Y40255860D01*
X52804722Y40307848D01*
X52841866Y40374136D01*
X52885001Y40451272D01*
X52915746Y40506331D01*
X53079454Y40799664D01*
X52828894Y41155442D01*
X52764216Y41247348D01*
X52702697Y41334894D01*
X52646801Y41414562D01*
X52598993Y41482836D01*
X52561737Y41536198D01*
X52537498Y41571132D01*
X52532916Y41577810D01*
X52487499Y41644400D01*
X52525636Y41775366D01*
X52545585Y41847325D01*
X52567993Y41933557D01*
X52589449Y42020732D01*
X52600097Y42066394D01*
X52636420Y42226457D01*
X53560698Y42651187D01*
X53560698Y42992887D01*
X51571031Y42992887D01*
X51566467Y42791440D01*
X51551843Y42608007D01*
X51525765Y42433741D01*
X51486835Y42259797D01*
X51433660Y42077328D01*
X51419919Y42035187D01*
X51317162Y41769034D01*
X51190130Y41515657D01*
X51040117Y41276764D01*
X50868416Y41054065D01*
X50676318Y40849266D01*
X50465118Y40664077D01*
X50279864Y40528907D01*
X50181693Y40468016D01*
X50065643Y40403769D01*
X49940141Y40340279D01*
X49813614Y40281658D01*
X49694491Y40232019D01*
X49606722Y40200406D01*
X49473337Y40161218D01*
X49328955Y40126065D01*
X49186008Y40097715D01*
X49064839Y40079830D01*
X48983757Y40073133D01*
X48883458Y40068942D01*
X48772834Y40067259D01*
X48660777Y40068088D01*
X48556182Y40071432D01*
X48467940Y40077295D01*
X48445523Y40079599D01*
X48188877Y40120791D01*
X47942562Y40185097D01*
X47700698Y40274254D01*
X47542309Y40346740D01*
X47371669Y40436365D01*
X47218635Y40529853D01*
X47072744Y40634040D01*
X46947004Y40735723D01*
X46743925Y40926132D01*
X46560803Y41135607D01*
X46398592Y41362348D01*
X46258246Y41604553D01*
X46140720Y41860423D01*
X46046969Y42128157D01*
X45977948Y42405954D01*
X45941367Y42632683D01*
X45936251Y42689028D01*
X45931902Y42765431D01*
X45928656Y42853732D01*
X45926848Y42945768D01*
X45926586Y42992887D01*
X45931151Y43194333D01*
X45945774Y43377766D01*
X45971853Y43552032D01*
X46010782Y43725976D01*
X46063958Y43908445D01*
X46077699Y43950586D01*
X46180456Y44216739D01*
X46307487Y44470116D01*
X46457500Y44709009D01*
X46629202Y44931709D01*
X46821299Y45136507D01*
X47032499Y45321696D01*
X47217753Y45456866D01*
X47315428Y45517462D01*
X47430928Y45581445D01*
X47555867Y45644720D01*
X47681860Y45703194D01*
X47800519Y45752771D01*
X47889949Y45785053D01*
X48159229Y45858046D01*
X48432612Y45903465D01*
X48708188Y45921309D01*
X48984044Y45911580D01*
X49258271Y45874276D01*
X49528958Y45809399D01*
X49607669Y45785053D01*
X49713385Y45746347D01*
X49833615Y45695239D01*
X49959972Y45635824D01*
X50084070Y45572195D01*
X50197524Y45508447D01*
X50279864Y45456866D01*
X50505669Y45288912D01*
X50713424Y45099958D01*
X50901836Y44891710D01*
X51069614Y44665879D01*
X51215463Y44424171D01*
X51338090Y44168296D01*
X51419919Y43950586D01*
X51476414Y43765056D01*
X51518356Y43589996D01*
X51547140Y43416560D01*
X51564163Y43235901D01*
X51570819Y43039174D01*
X51571031Y42992887D01*
X53560698Y42992887D01*
X53560698Y43334586D01*
X52636420Y43759316D01*
X52600097Y43919379D01*
X52580750Y44001005D01*
X52558478Y44089408D01*
X52536689Y44171255D01*
X52525636Y44210407D01*
X52487499Y44341373D01*
X52532916Y44407963D01*
X52552499Y44436299D01*
X52585883Y44484182D01*
X52630602Y44548095D01*
X52684193Y44624521D01*
X52744192Y44709943D01*
X52808132Y44800844D01*
X52828894Y44830331D01*
X53079454Y45186109D01*
X52915746Y45479442D01*
X52869723Y45561838D01*
X52828415Y45635659D01*
X52793760Y45697453D01*
X52767695Y45743770D01*
X52752157Y45771160D01*
X52748611Y45777190D01*
X52734304Y45776688D01*
X52695135Y45773295D01*
X52634277Y45767339D01*
X52554907Y45759147D01*
X52460200Y45749046D01*
X52353330Y45737364D01*
X52246301Y45725423D01*
X51747420Y45669241D01*
X51707207Y45713953D01*
X51683695Y45739153D01*
X51644708Y45779901D01*
X51594613Y45831675D01*
X51537778Y45889954D01*
X51500233Y45928222D01*
X51333472Y46097780D01*
X51381129Y46563222D01*
X51392838Y46677319D01*
X51403889Y46784531D01*
X51413889Y46881077D01*
X51422445Y46963175D01*
X51429163Y47027045D01*
X51433650Y47068905D01*
X51435115Y47081945D01*
X51441443Y47135226D01*
X51184228Y47288225D01*
X51105757Y47334814D01*
X51033880Y47377326D01*
X50972719Y47413334D01*
X50926398Y47440413D01*
X50899040Y47456137D01*
X50895349Y47458170D01*
X50885592Y47461553D01*
X50873131Y47460864D01*
X50855647Y47454579D01*
X50830821Y47441174D01*
X50796332Y47419127D01*
X50749861Y47386912D01*
X50689088Y47343008D01*
X50611694Y47285891D01*
X50515360Y47214037D01*
X50456278Y47169794D01*
X50048872Y46864472D01*
X49910368Y46908865D01*
X49830499Y46933136D01*
X49740106Y46958577D01*
X49655357Y46980685D01*
X49633343Y46986019D01*
X49574791Y47000230D01*
X49527565Y47012378D01*
X49497713Y47020867D01*
X49490435Y47023723D01*
X49484044Y47037374D01*
X49467804Y47074022D01*
X49442995Y47130727D01*
X49410894Y47204550D01*
X49372780Y47292551D01*
X49329932Y47391790D01*
X49285920Y47493997D01*
X49239756Y47601178D01*
X49197108Y47699894D01*
X49159254Y47787210D01*
X49127472Y47860191D01*
X49103040Y47915900D01*
X49087236Y47951404D01*
X49081376Y47963745D01*
X49066592Y47965094D01*
X49028396Y47966193D01*
X48971598Y47967039D01*
X48901007Y47967635D01*
X48821432Y47967978D01*
X48737682Y47968071D01*
X48654568Y47967912D01*
X48654568Y47967912D01*
G37*
X48654568Y47967912D02*
X48576898Y47967502D01*
X48509482Y47966840D01*
X48457129Y47965927D01*
X48424649Y47964763D01*
X48416241Y47963745D01*
X48409845Y47950218D01*
X48393602Y47913688D01*
X48368792Y47857092D01*
X48336693Y47783364D01*
X48298582Y47695441D01*
X48255738Y47596256D01*
X48211698Y47493997D01*
X48165530Y47386791D01*
X48122881Y47288026D01*
X48085028Y47200641D01*
X48053249Y47127577D01*
X48028824Y47071771D01*
X48013030Y47036164D01*
X48007183Y47023723D01*
X47992469Y47018604D01*
X47956302Y47008750D01*
X47904727Y46995756D01*
X47864275Y46986019D01*
X47784399Y46965800D01*
X47694006Y46940890D01*
X47609261Y46915792D01*
X47587249Y46908865D01*
X47448745Y46864472D01*
X47041340Y47169794D01*
X46934107Y47250014D01*
X46847036Y47314697D01*
X46777806Y47365364D01*
X46724099Y47403539D01*
X46683594Y47430746D01*
X46653972Y47448509D01*
X46632913Y47458351D01*
X46618098Y47461795D01*
X46607208Y47460365D01*
X46602269Y47458170D01*
X46580940Y47446048D01*
X46539497Y47421895D01*
X46482064Y47388135D01*
X46412763Y47347194D01*
X46335717Y47301499D01*
X46313389Y47288225D01*
X46056174Y47135226D01*
X46062503Y47081945D01*
X46065450Y47055226D01*
X46070866Y47004211D01*
X46078357Y46932682D01*
X46087532Y46844420D01*
X46097994Y46743205D01*
X46109352Y46632818D01*
X46116488Y46563222D01*
X46164145Y46097780D01*
X45997385Y45928222D01*
X45938538Y45868162D01*
X45883663Y45811739D01*
X45837126Y45763474D01*
X45803294Y45727890D01*
X45790411Y45713953D01*
X45750198Y45669241D01*
X45251316Y45725423D01*
X45136017Y45738277D01*
X45029940Y45749854D01*
X44936260Y45759824D01*
X44858154Y45767861D01*
X44798795Y45773638D01*
X44761360Y45776828D01*
X44749007Y45777190D01*
X44741460Y45764152D01*
X44722111Y45729913D01*
X44692895Y45677925D01*
X44655752Y45611637D01*
X44612616Y45534501D01*
X44581871Y45479442D01*
X44418163Y45186109D01*
X44668723Y44830331D01*
X44733401Y44738425D01*
X44794921Y44650879D01*
X44850817Y44571211D01*
X44898625Y44502937D01*
X44935881Y44449575D01*
X44960120Y44414641D01*
X44964701Y44407963D01*
X45010118Y44341373D01*
X44971981Y44210407D01*
X44952032Y44138448D01*
X44929624Y44052216D01*
X44908168Y43965042D01*
X44897521Y43919379D01*
X44861198Y43759316D01*
X43936920Y43334586D01*
X43936920Y42651300D01*
X44399059Y42438622D01*
X44861198Y42225945D01*
X44897521Y42066138D01*
X44916887Y41984541D01*
X44939182Y41896142D01*
X44960986Y41814301D01*
X44971981Y41775366D01*
X45010118Y41644400D01*
X44964701Y41577810D01*
X44945118Y41549474D01*
X44911735Y41501591D01*
X44867015Y41437678D01*
X44813424Y41361252D01*
X44753426Y41275830D01*
X44689485Y41184929D01*
X44668723Y41155442D01*
X44418163Y40799664D01*
X44581871Y40506331D01*
X44627893Y40423937D01*
X44669198Y40350120D01*
X44703848Y40288330D01*
X44729907Y40242019D01*
X44745439Y40214635D01*
X44748981Y40208608D01*
X44763283Y40209112D01*
X44802448Y40212496D01*
X44863303Y40218435D01*
X44942671Y40226602D01*
X45037379Y40236671D01*
X45144251Y40248316D01*
X45251291Y40260220D01*
X45750198Y40316220D01*
X45790411Y40271665D01*
X45813921Y40246519D01*
X45852904Y40205819D01*
X45902995Y40154083D01*
X45959826Y40095829D01*
X45997385Y40057551D01*
X46164145Y39887994D01*
X46116488Y39422551D01*
X46104780Y39308454D01*
X46093729Y39201242D01*
X46083728Y39104697D01*
X46075172Y39022598D01*
X46068454Y38958729D01*
X46063967Y38916868D01*
X46062503Y38903828D01*
X46056174Y38850547D01*
X46313389Y38697549D01*
X46391860Y38650959D01*
X46463738Y38608447D01*
X46524899Y38572439D01*
X46571220Y38545360D01*
X46598577Y38529636D01*
X46602269Y38527604D01*
X46612026Y38524220D01*
X46624486Y38524909D01*
X46641970Y38531194D01*
X46666797Y38544599D01*
X46701286Y38566647D01*
X46747757Y38598861D01*
X46808529Y38642765D01*
X46885923Y38699882D01*
X46982257Y38771736D01*
X47041340Y38815979D01*
X47448745Y39121301D01*
X47587249Y39076909D01*
X47667119Y39052637D01*
X47757511Y39027196D01*
X47842261Y39005088D01*
X47864275Y38999754D01*
X47922822Y38985543D01*
X47970040Y38973396D01*
X47999881Y38964907D01*
X48007152Y38962050D01*
X48013533Y38948398D01*
X48029757Y38911747D01*
X48054546Y38855039D01*
X48086621Y38781216D01*
X48124705Y38693217D01*
X48167520Y38593983D01*
X48211376Y38492067D01*
X48257506Y38384901D01*
X48300134Y38286190D01*
X48337981Y38198874D01*
X48369765Y38125892D01*
X48394209Y38070182D01*
X48410032Y38034683D01*
X48415911Y38022358D01*
X48431267Y38020412D01*
X48469984Y38018701D01*
X48527200Y38017251D01*
X48598055Y38016084D01*
X48677688Y38015227D01*
X48761239Y38014703D01*
X48843846Y38014537D01*
X48920649Y38014755D01*
X48986787Y38015380D01*
X49037399Y38016437D01*
X49067624Y38017951D01*
X49073861Y38019025D01*
X49081997Y38033262D01*
X49099862Y38070500D01*
X49126126Y38127775D01*
X49159458Y38202120D01*
X49198529Y38290573D01*
X49242010Y38390167D01*
X49285907Y38491747D01*
X49332076Y38598956D01*
X49374727Y38697725D01*
X49412582Y38785113D01*
X49444362Y38858182D01*
X49468789Y38913992D01*
X49484586Y38949603D01*
X49490435Y38962050D01*
X49505148Y38967169D01*
X49541316Y38977023D01*
X49592890Y38990017D01*
X49633343Y38999754D01*
X49713219Y39019973D01*
X49803612Y39044883D01*
X49888357Y39069981D01*
X49910368Y39076909D01*
X50048872Y39121301D01*
X50456278Y38815979D01*
X50563510Y38735759D01*
X50650582Y38671077D01*
X50719811Y38620410D01*
X50773519Y38582234D01*
X50814024Y38555027D01*
X50843646Y38537264D01*
X50864704Y38527422D01*
X50879519Y38523978D01*
X50890409Y38525409D01*
X50895349Y38527604D01*
X50916677Y38539725D01*
X50958120Y38563878D01*
X51015554Y38597638D01*
X51084855Y38638579D01*
X51161900Y38684274D01*
X51184228Y38697549D01*
X51441443Y38850547D01*
X51435115Y38903828D01*
X51432168Y38930547D01*
X51426752Y38981562D01*
X51419260Y39053091D01*
X51410086Y39141354D01*
X51399623Y39242568D01*
X51388265Y39352955D01*
X51381129Y39422551D01*
X51333472Y39887994D01*
X51500233Y40057551D01*
X51559079Y40117612D01*
X51613955Y40174035D01*
X51660492Y40222299D01*
X51694323Y40257883D01*
X51707207Y40271821D01*
X51747420Y40316532D01*
X52246301Y40260350D01*
X52361601Y40247496D01*
X52467678Y40235920D01*
X52561357Y40225949D01*
X52639464Y40217912D01*
X52698822Y40212135D01*
X52736257Y40208945D01*
X52748611Y40208583D01*
X52756157Y40221621D01*
X52775507Y40255860D01*
X52804722Y40307848D01*
X52841866Y40374136D01*
X52885001Y40451272D01*
X52915746Y40506331D01*
X53079454Y40799664D01*
X52828894Y41155442D01*
X52764216Y41247348D01*
X52702697Y41334894D01*
X52646801Y41414562D01*
X52598993Y41482836D01*
X52561737Y41536198D01*
X52537498Y41571132D01*
X52532916Y41577810D01*
X52487499Y41644400D01*
X52525636Y41775366D01*
X52545585Y41847325D01*
X52567993Y41933557D01*
X52589449Y42020732D01*
X52600097Y42066394D01*
X52636420Y42226457D01*
X53560698Y42651187D01*
X53560698Y42992887D01*
X51571031Y42992887D01*
X51566467Y42791440D01*
X51551843Y42608007D01*
X51525765Y42433741D01*
X51486835Y42259797D01*
X51433660Y42077328D01*
X51419919Y42035187D01*
X51317162Y41769034D01*
X51190130Y41515657D01*
X51040117Y41276764D01*
X50868416Y41054065D01*
X50676318Y40849266D01*
X50465118Y40664077D01*
X50279864Y40528907D01*
X50181693Y40468016D01*
X50065643Y40403769D01*
X49940141Y40340279D01*
X49813614Y40281658D01*
X49694491Y40232019D01*
X49606722Y40200406D01*
X49473337Y40161218D01*
X49328955Y40126065D01*
X49186008Y40097715D01*
X49064839Y40079830D01*
X48983757Y40073133D01*
X48883458Y40068942D01*
X48772834Y40067259D01*
X48660777Y40068088D01*
X48556182Y40071432D01*
X48467940Y40077295D01*
X48445523Y40079599D01*
X48188877Y40120791D01*
X47942562Y40185097D01*
X47700698Y40274254D01*
X47542309Y40346740D01*
X47371669Y40436365D01*
X47218635Y40529853D01*
X47072744Y40634040D01*
X46947004Y40735723D01*
X46743925Y40926132D01*
X46560803Y41135607D01*
X46398592Y41362348D01*
X46258246Y41604553D01*
X46140720Y41860423D01*
X46046969Y42128157D01*
X45977948Y42405954D01*
X45941367Y42632683D01*
X45936251Y42689028D01*
X45931902Y42765431D01*
X45928656Y42853732D01*
X45926848Y42945768D01*
X45926586Y42992887D01*
X45931151Y43194333D01*
X45945774Y43377766D01*
X45971853Y43552032D01*
X46010782Y43725976D01*
X46063958Y43908445D01*
X46077699Y43950586D01*
X46180456Y44216739D01*
X46307487Y44470116D01*
X46457500Y44709009D01*
X46629202Y44931709D01*
X46821299Y45136507D01*
X47032499Y45321696D01*
X47217753Y45456866D01*
X47315428Y45517462D01*
X47430928Y45581445D01*
X47555867Y45644720D01*
X47681860Y45703194D01*
X47800519Y45752771D01*
X47889949Y45785053D01*
X48159229Y45858046D01*
X48432612Y45903465D01*
X48708188Y45921309D01*
X48984044Y45911580D01*
X49258271Y45874276D01*
X49528958Y45809399D01*
X49607669Y45785053D01*
X49713385Y45746347D01*
X49833615Y45695239D01*
X49959972Y45635824D01*
X50084070Y45572195D01*
X50197524Y45508447D01*
X50279864Y45456866D01*
X50505669Y45288912D01*
X50713424Y45099958D01*
X50901836Y44891710D01*
X51069614Y44665879D01*
X51215463Y44424171D01*
X51338090Y44168296D01*
X51419919Y43950586D01*
X51476414Y43765056D01*
X51518356Y43589996D01*
X51547140Y43416560D01*
X51564163Y43235901D01*
X51570819Y43039174D01*
X51571031Y42992887D01*
X53560698Y42992887D01*
X53560698Y43334586D01*
X52636420Y43759316D01*
X52600097Y43919379D01*
X52580750Y44001005D01*
X52558478Y44089408D01*
X52536689Y44171255D01*
X52525636Y44210407D01*
X52487499Y44341373D01*
X52532916Y44407963D01*
X52552499Y44436299D01*
X52585883Y44484182D01*
X52630602Y44548095D01*
X52684193Y44624521D01*
X52744192Y44709943D01*
X52808132Y44800844D01*
X52828894Y44830331D01*
X53079454Y45186109D01*
X52915746Y45479442D01*
X52869723Y45561838D01*
X52828415Y45635659D01*
X52793760Y45697453D01*
X52767695Y45743770D01*
X52752157Y45771160D01*
X52748611Y45777190D01*
X52734304Y45776688D01*
X52695135Y45773295D01*
X52634277Y45767339D01*
X52554907Y45759147D01*
X52460200Y45749046D01*
X52353330Y45737364D01*
X52246301Y45725423D01*
X51747420Y45669241D01*
X51707207Y45713953D01*
X51683695Y45739153D01*
X51644708Y45779901D01*
X51594613Y45831675D01*
X51537778Y45889954D01*
X51500233Y45928222D01*
X51333472Y46097780D01*
X51381129Y46563222D01*
X51392838Y46677319D01*
X51403889Y46784531D01*
X51413889Y46881077D01*
X51422445Y46963175D01*
X51429163Y47027045D01*
X51433650Y47068905D01*
X51435115Y47081945D01*
X51441443Y47135226D01*
X51184228Y47288225D01*
X51105757Y47334814D01*
X51033880Y47377326D01*
X50972719Y47413334D01*
X50926398Y47440413D01*
X50899040Y47456137D01*
X50895349Y47458170D01*
X50885592Y47461553D01*
X50873131Y47460864D01*
X50855647Y47454579D01*
X50830821Y47441174D01*
X50796332Y47419127D01*
X50749861Y47386912D01*
X50689088Y47343008D01*
X50611694Y47285891D01*
X50515360Y47214037D01*
X50456278Y47169794D01*
X50048872Y46864472D01*
X49910368Y46908865D01*
X49830499Y46933136D01*
X49740106Y46958577D01*
X49655357Y46980685D01*
X49633343Y46986019D01*
X49574791Y47000230D01*
X49527565Y47012378D01*
X49497713Y47020867D01*
X49490435Y47023723D01*
X49484044Y47037374D01*
X49467804Y47074022D01*
X49442995Y47130727D01*
X49410894Y47204550D01*
X49372780Y47292551D01*
X49329932Y47391790D01*
X49285920Y47493997D01*
X49239756Y47601178D01*
X49197108Y47699894D01*
X49159254Y47787210D01*
X49127472Y47860191D01*
X49103040Y47915900D01*
X49087236Y47951404D01*
X49081376Y47963745D01*
X49066592Y47965094D01*
X49028396Y47966193D01*
X48971598Y47967039D01*
X48901007Y47967635D01*
X48821432Y47967978D01*
X48737682Y47968071D01*
X48654568Y47967912D01*
G36*
X50025412Y39067872D02*
X50006193Y39056836D01*
X50014406Y39050150D01*
X50033753Y39048831D01*
X50053427Y39054041D01*
X50054467Y39062326D01*
X50036110Y39070013D01*
X50025412Y39067872D01*
X50025412Y39067872D01*
G37*
X50025412Y39067872D02*
X50006193Y39056836D01*
X50014406Y39050150D01*
X50033753Y39048831D01*
X50053427Y39054041D01*
X50054467Y39062326D01*
X50036110Y39070013D01*
X50025412Y39067872D01*
G36*
X49487733Y44848408D02*
X49294831Y44848115D01*
X49127275Y44847580D01*
X48983629Y44846766D01*
X48862455Y44845635D01*
X48762316Y44844150D01*
X48681773Y44842274D01*
X48619391Y44839968D01*
X48573730Y44837196D01*
X48543355Y44833919D01*
X48526827Y44830101D01*
X48522709Y44825703D01*
X48529564Y44820688D01*
X48536697Y44817924D01*
X48542982Y44803462D01*
X48554200Y44764795D01*
X48569509Y44705341D01*
X48588069Y44628521D01*
X48609039Y44537752D01*
X48631580Y44436456D01*
X48640161Y44396942D01*
X48729960Y43980664D01*
X49583915Y43977028D01*
X50437869Y43973392D01*
X50477240Y43793584D01*
X50492504Y43724793D01*
X50506081Y43665309D01*
X50516618Y43620937D01*
X50522763Y43597484D01*
X50523219Y43596137D01*
X50519540Y43590545D01*
X50502102Y43586191D01*
X50468340Y43582947D01*
X50415686Y43580687D01*
X50341572Y43579283D01*
X50243430Y43578607D01*
X50167847Y43578498D01*
X49805867Y43578498D01*
X49527810Y43158692D01*
X49463447Y43061424D01*
X49404089Y42971538D01*
X49351526Y42891758D01*
X49307547Y42824809D01*
X49273942Y42773413D01*
X49252499Y42740296D01*
X49245049Y42728303D01*
X49257802Y42726272D01*
X49296180Y42724369D01*
X49357585Y42722632D01*
X49439422Y42721098D01*
X49539092Y42719805D01*
X49653998Y42718791D01*
X49781544Y42718093D01*
X49919132Y42717750D01*
X49974349Y42717720D01*
X50137370Y42717672D01*
X50274435Y42717479D01*
X50387811Y42717065D01*
X50479762Y42716355D01*
X50552557Y42715272D01*
X50608461Y42713743D01*
X50649739Y42711690D01*
X50678659Y42709038D01*
X50697486Y42705713D01*
X50708487Y42701638D01*
X50713928Y42696738D01*
X50715572Y42693025D01*
X50720457Y42672874D01*
X50730098Y42630332D01*
X50743546Y42569785D01*
X50759850Y42495620D01*
X50778060Y42412225D01*
X50797228Y42323986D01*
X50816403Y42235290D01*
X50834635Y42150524D01*
X50850974Y42074075D01*
X50864472Y42010329D01*
X50874177Y41963674D01*
X50879141Y41938497D01*
X50879586Y41935453D01*
X50865878Y41934042D01*
X50826360Y41932712D01*
X50763446Y41931483D01*
X50679549Y41930379D01*
X50577083Y41929421D01*
X50458460Y41928632D01*
X50326093Y41928034D01*
X50182396Y41927649D01*
X50029782Y41927499D01*
X50014693Y41927498D01*
X49149800Y41927498D01*
X48861160Y41529916D01*
X48792989Y41436203D01*
X48729547Y41349346D01*
X48672864Y41272100D01*
X48624971Y41207214D01*
X48587896Y41157442D01*
X48563672Y41125536D01*
X48554830Y41114646D01*
X48539618Y41095471D01*
X48537142Y41088895D01*
X48550905Y41087654D01*
X48590805Y41086472D01*
X48654754Y41085363D01*
X48740666Y41084341D01*
X48846456Y41083421D01*
X48970036Y41082617D01*
X49109321Y41081945D01*
X49262224Y41081417D01*
X49426660Y41081050D01*
X49600541Y41080857D01*
X49694268Y41080831D01*
X50851394Y41080831D01*
X50918407Y41166705D01*
X51081846Y41398692D01*
X51222441Y41645632D01*
X51339079Y41904787D01*
X51430645Y42173420D01*
X51496025Y42448796D01*
X51527883Y42664247D01*
X51542261Y42879833D01*
X51540884Y43107747D01*
X51524244Y43337244D01*
X51492838Y43557579D01*
X51484815Y43599664D01*
X51438978Y43786870D01*
X51375842Y43980916D01*
X51298258Y44175575D01*
X51209076Y44364618D01*
X51111146Y44541818D01*
X51007321Y44700947D01*
X50940648Y44788525D01*
X50891808Y44848498D01*
X49707420Y44848498D01*
X49487733Y44848408D01*
X49487733Y44848408D01*
G37*
X49487733Y44848408D02*
X49294831Y44848115D01*
X49127275Y44847580D01*
X48983629Y44846766D01*
X48862455Y44845635D01*
X48762316Y44844150D01*
X48681773Y44842274D01*
X48619391Y44839968D01*
X48573730Y44837196D01*
X48543355Y44833919D01*
X48526827Y44830101D01*
X48522709Y44825703D01*
X48529564Y44820688D01*
X48536697Y44817924D01*
X48542982Y44803462D01*
X48554200Y44764795D01*
X48569509Y44705341D01*
X48588069Y44628521D01*
X48609039Y44537752D01*
X48631580Y44436456D01*
X48640161Y44396942D01*
X48729960Y43980664D01*
X49583915Y43977028D01*
X50437869Y43973392D01*
X50477240Y43793584D01*
X50492504Y43724793D01*
X50506081Y43665309D01*
X50516618Y43620937D01*
X50522763Y43597484D01*
X50523219Y43596137D01*
X50519540Y43590545D01*
X50502102Y43586191D01*
X50468340Y43582947D01*
X50415686Y43580687D01*
X50341572Y43579283D01*
X50243430Y43578607D01*
X50167847Y43578498D01*
X49805867Y43578498D01*
X49527810Y43158692D01*
X49463447Y43061424D01*
X49404089Y42971538D01*
X49351526Y42891758D01*
X49307547Y42824809D01*
X49273942Y42773413D01*
X49252499Y42740296D01*
X49245049Y42728303D01*
X49257802Y42726272D01*
X49296180Y42724369D01*
X49357585Y42722632D01*
X49439422Y42721098D01*
X49539092Y42719805D01*
X49653998Y42718791D01*
X49781544Y42718093D01*
X49919132Y42717750D01*
X49974349Y42717720D01*
X50137370Y42717672D01*
X50274435Y42717479D01*
X50387811Y42717065D01*
X50479762Y42716355D01*
X50552557Y42715272D01*
X50608461Y42713743D01*
X50649739Y42711690D01*
X50678659Y42709038D01*
X50697486Y42705713D01*
X50708487Y42701638D01*
X50713928Y42696738D01*
X50715572Y42693025D01*
X50720457Y42672874D01*
X50730098Y42630332D01*
X50743546Y42569785D01*
X50759850Y42495620D01*
X50778060Y42412225D01*
X50797228Y42323986D01*
X50816403Y42235290D01*
X50834635Y42150524D01*
X50850974Y42074075D01*
X50864472Y42010329D01*
X50874177Y41963674D01*
X50879141Y41938497D01*
X50879586Y41935453D01*
X50865878Y41934042D01*
X50826360Y41932712D01*
X50763446Y41931483D01*
X50679549Y41930379D01*
X50577083Y41929421D01*
X50458460Y41928632D01*
X50326093Y41928034D01*
X50182396Y41927649D01*
X50029782Y41927499D01*
X50014693Y41927498D01*
X49149800Y41927498D01*
X48861160Y41529916D01*
X48792989Y41436203D01*
X48729547Y41349346D01*
X48672864Y41272100D01*
X48624971Y41207214D01*
X48587896Y41157442D01*
X48563672Y41125536D01*
X48554830Y41114646D01*
X48539618Y41095471D01*
X48537142Y41088895D01*
X48550905Y41087654D01*
X48590805Y41086472D01*
X48654754Y41085363D01*
X48740666Y41084341D01*
X48846456Y41083421D01*
X48970036Y41082617D01*
X49109321Y41081945D01*
X49262224Y41081417D01*
X49426660Y41081050D01*
X49600541Y41080857D01*
X49694268Y41080831D01*
X50851394Y41080831D01*
X50918407Y41166705D01*
X51081846Y41398692D01*
X51222441Y41645632D01*
X51339079Y41904787D01*
X51430645Y42173420D01*
X51496025Y42448796D01*
X51527883Y42664247D01*
X51542261Y42879833D01*
X51540884Y43107747D01*
X51524244Y43337244D01*
X51492838Y43557579D01*
X51484815Y43599664D01*
X51438978Y43786870D01*
X51375842Y43980916D01*
X51298258Y44175575D01*
X51209076Y44364618D01*
X51111146Y44541818D01*
X51007321Y44700947D01*
X50940648Y44788525D01*
X50891808Y44848498D01*
X49707420Y44848498D01*
X49487733Y44848408D01*
G36*
X46556970Y44788525D02*
X46448464Y44640405D01*
X46344712Y44470102D01*
X46248438Y44283583D01*
X46162372Y44086817D01*
X46089238Y43885769D01*
X46031765Y43686407D01*
X46010447Y43592609D01*
X45993109Y43494478D01*
X45984559Y43405240D01*
X45985063Y43317140D01*
X45994885Y43222427D01*
X46014290Y43113344D01*
X46029169Y43044300D01*
X46074753Y42841714D01*
X47055475Y42308490D01*
X47209072Y42225053D01*
X47355386Y42145716D01*
X47492542Y42071487D01*
X47618665Y42003375D01*
X47731881Y41942386D01*
X47830314Y41889530D01*
X47912089Y41845814D01*
X47975332Y41812246D01*
X48018168Y41789834D01*
X48038722Y41779586D01*
X48040297Y41779046D01*
X48038156Y41792913D01*
X48030759Y41830703D01*
X48018888Y41888769D01*
X48003326Y41963467D01*
X47984856Y42051149D01*
X47964261Y42148170D01*
X47942325Y42250885D01*
X47919830Y42355647D01*
X47897560Y42458810D01*
X47876297Y42556730D01*
X47856824Y42645760D01*
X47839926Y42722254D01*
X47826384Y42782566D01*
X47816982Y42823050D01*
X47812502Y42840062D01*
X47812350Y42840337D01*
X47799908Y42847656D01*
X47765739Y42867226D01*
X47712695Y42897429D01*
X47643626Y42936646D01*
X47561385Y42983255D01*
X47468822Y43035640D01*
X47393821Y43078037D01*
X47294847Y43134083D01*
X47203633Y43185970D01*
X47123113Y43232011D01*
X47056223Y43270518D01*
X47005896Y43299803D01*
X46975068Y43318179D01*
X46966542Y43323753D01*
X46960892Y43339914D01*
X46950879Y43379604D01*
X46937387Y43438621D01*
X46921300Y43512763D01*
X46903502Y43597829D01*
X46884877Y43689616D01*
X46866309Y43783924D01*
X46848683Y43876551D01*
X46837979Y43934803D01*
X46828419Y43987720D01*
X47351169Y43987720D01*
X47486913Y43987635D01*
X47597071Y43987301D01*
X47684282Y43986599D01*
X47751181Y43985411D01*
X47800407Y43983620D01*
X47834595Y43981105D01*
X47856382Y43977750D01*
X47868407Y43973435D01*
X47873305Y43968042D01*
X47873920Y43964253D01*
X47876867Y43947060D01*
X47885381Y43904554D01*
X47898974Y43838987D01*
X47917157Y43752610D01*
X47939439Y43647674D01*
X47965331Y43526432D01*
X47994345Y43391134D01*
X48025992Y43244033D01*
X48059781Y43087380D01*
X48095223Y42923426D01*
X48131831Y42754424D01*
X48169113Y42582624D01*
X48206581Y42410278D01*
X48243745Y42239638D01*
X48280117Y42072955D01*
X48315207Y41912481D01*
X48348526Y41760467D01*
X48379585Y41619166D01*
X48407893Y41490828D01*
X48432963Y41377705D01*
X48454305Y41282049D01*
X48471429Y41206112D01*
X48483846Y41152144D01*
X48491068Y41122397D01*
X48492522Y41117437D01*
X48498257Y41113654D01*
X48509692Y41120090D01*
X48528329Y41138613D01*
X48555672Y41171089D01*
X48593224Y41219383D01*
X48642487Y41285363D01*
X48704967Y41370893D01*
X48776679Y41470215D01*
X48844361Y41564105D01*
X48908717Y41653028D01*
X48967393Y41733757D01*
X49018036Y41803070D01*
X49058295Y41857742D01*
X49085815Y41894549D01*
X49094941Y41906349D01*
X49140057Y41962811D01*
X48821338Y43405654D01*
X48502618Y44848498D01*
X46605809Y44848498D01*
X46556970Y44788525D01*
X46556970Y44788525D01*
G37*
X46556970Y44788525D02*
X46448464Y44640405D01*
X46344712Y44470102D01*
X46248438Y44283583D01*
X46162372Y44086817D01*
X46089238Y43885769D01*
X46031765Y43686407D01*
X46010447Y43592609D01*
X45993109Y43494478D01*
X45984559Y43405240D01*
X45985063Y43317140D01*
X45994885Y43222427D01*
X46014290Y43113344D01*
X46029169Y43044300D01*
X46074753Y42841714D01*
X47055475Y42308490D01*
X47209072Y42225053D01*
X47355386Y42145716D01*
X47492542Y42071487D01*
X47618665Y42003375D01*
X47731881Y41942386D01*
X47830314Y41889530D01*
X47912089Y41845814D01*
X47975332Y41812246D01*
X48018168Y41789834D01*
X48038722Y41779586D01*
X48040297Y41779046D01*
X48038156Y41792913D01*
X48030759Y41830703D01*
X48018888Y41888769D01*
X48003326Y41963467D01*
X47984856Y42051149D01*
X47964261Y42148170D01*
X47942325Y42250885D01*
X47919830Y42355647D01*
X47897560Y42458810D01*
X47876297Y42556730D01*
X47856824Y42645760D01*
X47839926Y42722254D01*
X47826384Y42782566D01*
X47816982Y42823050D01*
X47812502Y42840062D01*
X47812350Y42840337D01*
X47799908Y42847656D01*
X47765739Y42867226D01*
X47712695Y42897429D01*
X47643626Y42936646D01*
X47561385Y42983255D01*
X47468822Y43035640D01*
X47393821Y43078037D01*
X47294847Y43134083D01*
X47203633Y43185970D01*
X47123113Y43232011D01*
X47056223Y43270518D01*
X47005896Y43299803D01*
X46975068Y43318179D01*
X46966542Y43323753D01*
X46960892Y43339914D01*
X46950879Y43379604D01*
X46937387Y43438621D01*
X46921300Y43512763D01*
X46903502Y43597829D01*
X46884877Y43689616D01*
X46866309Y43783924D01*
X46848683Y43876551D01*
X46837979Y43934803D01*
X46828419Y43987720D01*
X47351169Y43987720D01*
X47486913Y43987635D01*
X47597071Y43987301D01*
X47684282Y43986599D01*
X47751181Y43985411D01*
X47800407Y43983620D01*
X47834595Y43981105D01*
X47856382Y43977750D01*
X47868407Y43973435D01*
X47873305Y43968042D01*
X47873920Y43964253D01*
X47876867Y43947060D01*
X47885381Y43904554D01*
X47898974Y43838987D01*
X47917157Y43752610D01*
X47939439Y43647674D01*
X47965331Y43526432D01*
X47994345Y43391134D01*
X48025992Y43244033D01*
X48059781Y43087380D01*
X48095223Y42923426D01*
X48131831Y42754424D01*
X48169113Y42582624D01*
X48206581Y42410278D01*
X48243745Y42239638D01*
X48280117Y42072955D01*
X48315207Y41912481D01*
X48348526Y41760467D01*
X48379585Y41619166D01*
X48407893Y41490828D01*
X48432963Y41377705D01*
X48454305Y41282049D01*
X48471429Y41206112D01*
X48483846Y41152144D01*
X48491068Y41122397D01*
X48492522Y41117437D01*
X48498257Y41113654D01*
X48509692Y41120090D01*
X48528329Y41138613D01*
X48555672Y41171089D01*
X48593224Y41219383D01*
X48642487Y41285363D01*
X48704967Y41370893D01*
X48776679Y41470215D01*
X48844361Y41564105D01*
X48908717Y41653028D01*
X48967393Y41733757D01*
X49018036Y41803070D01*
X49058295Y41857742D01*
X49085815Y41894549D01*
X49094941Y41906349D01*
X49140057Y41962811D01*
X48821338Y43405654D01*
X48502618Y44848498D01*
X46605809Y44848498D01*
X46556970Y44788525D01*
M02*
