M48
;DRILL file {KiCad 4.0.6+dfsg1-1} date Mon Feb 26 19:52:41 2018
;FORMAT={2:4/ absolute / inch / suppress leading zeros}
FMAT,2
INCH,TZ
T1C0.016
T2C0.020
T3C0.030
T4C0.039
T5C0.051
T6C0.126
%
G90
G05
M72
T1
X9937Y10228
X18088Y26228
X18528Y26668
X18978Y27128
X22928Y8454
T2
X1083Y1828
X1360Y2496
X1360Y1160
X2028Y2773
X2028Y883
X2696Y2496
X2696Y1160
X2973Y1828
X5283Y10728
X5560Y11396
X5560Y10060
X6228Y11673
X6228Y9783
X6896Y11396
X6896Y10060
X7173Y10728
X13283Y30328
X13283Y23728
X13283Y11128
X13283Y4528
X13560Y30996
X13560Y29660
X13560Y24396
X13560Y23060
X13560Y11796
X13560Y10460
X13560Y5196
X13560Y3860
X14228Y31273
X14228Y29383
X14228Y24673
X14228Y22783
X14228Y12073
X14228Y10183
X14228Y5473
X14228Y3583
X14896Y30996
X14896Y29660
X14896Y24396
X14896Y23060
X14896Y11796
X14896Y10460
X14896Y5196
X14896Y3860
X15173Y30328
X15173Y23728
X15173Y11128
X15173Y4528
X25683Y32028
X25960Y32696
X25960Y31360
X26628Y32973
X26628Y31083
X27296Y32696
X27296Y31360
X27573Y32028
T3
X5228Y33128
X5228Y32628
X5228Y19128
X5228Y18628
X5228Y18128
X5228Y15928
X5228Y15428
X5228Y14928
X5228Y1428
X5228Y928
X5728Y33128
X5728Y32628
X5728Y19128
X5728Y18628
X5728Y18128
X5728Y15928
X5728Y15428
X5728Y14928
X5728Y1428
X5728Y928
X6228Y33128
X6228Y32628
X6228Y19128
X6228Y18628
X6228Y18128
X6228Y15928
X6228Y15428
X6228Y14928
X6228Y1428
X6228Y928
X7228Y30128
X7228Y29628
X7228Y21628
X7228Y12428
X7228Y4428
X7228Y3928
X8228Y30128
X8228Y29628
X8228Y21628
X8228Y12428
X8228Y4428
X8228Y3928
X10228Y30128
X10228Y29628
X10228Y21628
X10228Y12428
X10228Y4428
X10228Y3928
X11228Y30128
X11228Y29628
X11228Y21628
X11228Y12428
X11228Y4428
X11228Y3928
X12228Y33128
X12228Y32628
X12228Y19128
X12228Y18628
X12228Y18128
X12228Y15928
X12228Y15428
X12228Y14928
X12228Y1428
X12228Y928
X12728Y33128
X12728Y32628
X12728Y19128
X12728Y18628
X12728Y18128
X12728Y15928
X12728Y15428
X12728Y14928
X12728Y1428
X12728Y928
X13228Y33128
X13228Y32628
X13228Y19128
X13228Y18628
X13228Y18128
X13228Y15928
X13228Y15428
X13228Y14928
X13228Y1428
X13228Y928
X15228Y33128
X15228Y32628
X15228Y19128
X15228Y18628
X15228Y18128
X15228Y15928
X15228Y15428
X15228Y14928
X15228Y1428
X15228Y928
X15728Y33128
X15728Y32628
X15728Y19128
X15728Y18628
X15728Y18128
X15728Y15928
X15728Y15428
X15728Y14928
X15728Y1428
X15728Y928
X16228Y33128
X16228Y32628
X16228Y19128
X16228Y18628
X16228Y18128
X16228Y15928
X16228Y15428
X16228Y14928
X16228Y1428
X16228Y928
X17228Y30128
X17228Y29628
X17228Y21628
X17228Y12428
X17228Y4428
X17228Y3928
X18228Y30128
X18228Y29628
X18228Y21628
X18228Y12428
X18228Y4428
X18228Y3928
X20228Y30128
X20228Y29628
X20228Y21628
X20228Y12428
X20228Y4428
X20228Y3928
X21228Y30128
X21228Y29628
X21228Y21628
X21228Y12428
X21228Y4428
X21228Y3928
X22228Y33128
X22228Y32628
X22228Y19128
X22228Y18628
X22228Y18128
X22228Y15928
X22228Y15428
X22228Y14928
X22228Y1428
X22228Y928
X22728Y33128
X22728Y32628
X22728Y19128
X22728Y18628
X22728Y18128
X22728Y15928
X22728Y15428
X22728Y14928
X22728Y1428
X22728Y928
X23228Y33128
X23228Y32628
X23228Y19128
X23228Y18628
X23228Y18128
X23228Y15928
X23228Y15428
X23228Y14928
X23228Y1428
X23228Y928
T4
X25428Y9078
X26428Y9078
X27428Y9078
T5
X2028Y18828
X2028Y16859
X2028Y14728
X2028Y12759
X2028Y10628
X2028Y8659
X2028Y6528
X2028Y4559
X2228Y32897
X2228Y30928
X2228Y28747
X2228Y26778
X2228Y24597
X2228Y22628
X26428Y7297
X26428Y5328
X26428Y3097
X26428Y1128
X26728Y28897
X26728Y26928
X26728Y24897
X26728Y22928
X26728Y20897
X26728Y18928
X26728Y15997
X26728Y14028
T6
X2028Y1828
X6228Y10728
X14228Y30328
X14228Y23728
X14228Y11128
X14228Y4528
X26628Y32028
T0
M30
