G04 #@! TF.FileFunction,Soldermask,Top*
%FSLAX46Y46*%
G04 Gerber Fmt 4.6, Leading zero omitted, Abs format (unit mm)*
G04 Created by KiCad (PCBNEW 4.0.6+dfsg1-1) date Mon Feb 26 19:52:27 2018*
%MOMM*%
%LPD*%
G01*
G04 APERTURE LIST*
%ADD10C,0.100000*%
%ADD11R,2.900000X2.900000*%
%ADD12C,2.900000*%
%ADD13C,1.924000*%
%ADD14R,3.000000X2.000000*%
%ADD15R,1.400000X1.650000*%
%ADD16R,1.600000X1.600000*%
%ADD17R,2.700000X2.900000*%
%ADD18R,1.100000X1.700000*%
%ADD19C,6.800000*%
%ADD20C,1.000000*%
%ADD21R,1.700000X1.100000*%
%ADD22R,2.100000X2.100000*%
%ADD23O,2.100000X2.100000*%
G04 APERTURE END LIST*
D10*
D11*
X67127120Y13533120D03*
D12*
X67127120Y18533120D03*
D13*
X32329120Y46045120D03*
X13279120Y46045120D03*
X32329120Y47315120D03*
X32329120Y48585120D03*
X33599120Y46045120D03*
X33599120Y47315120D03*
X33599120Y48585120D03*
X14549120Y46045120D03*
X14549120Y47315120D03*
X14549120Y48585120D03*
X13279120Y48585120D03*
X13279120Y47315120D03*
X32329120Y84145120D03*
X33599120Y82875120D03*
X33599120Y84145120D03*
X31059120Y46045120D03*
X31059120Y47315120D03*
X31059120Y48585120D03*
X15819120Y46045120D03*
X15819120Y48585120D03*
X15819120Y47315120D03*
X31059120Y82875120D03*
X31059120Y84145120D03*
X15819120Y82875120D03*
X32329120Y82875120D03*
X15819120Y84145120D03*
X14549120Y82875120D03*
X13279120Y82875120D03*
X13279120Y84145120D03*
X14549120Y84145120D03*
X28519120Y54935120D03*
X25979120Y54935120D03*
X20899120Y54935120D03*
X18359120Y54935120D03*
X28519120Y75255120D03*
X25979120Y75255120D03*
X20899120Y75255120D03*
X18359120Y75255120D03*
X28519120Y76525120D03*
X25979120Y76525120D03*
X20899120Y76525120D03*
X18359120Y76525120D03*
D11*
X5659120Y68016120D03*
D12*
X5659120Y73016120D03*
D11*
X5659120Y57475120D03*
D12*
X5659120Y62475120D03*
D11*
X5659120Y78557120D03*
D12*
X5659120Y83557120D03*
D11*
X67127120Y2865120D03*
D12*
X67127120Y7865120D03*
D11*
X5151120Y47823120D03*
D12*
X5151120Y42823120D03*
D11*
X5151120Y37409120D03*
D12*
X5151120Y32409120D03*
D11*
X67889120Y68397120D03*
D12*
X67889120Y73397120D03*
D11*
X67889120Y48077120D03*
D12*
X67889120Y53077120D03*
D11*
X67889120Y58237120D03*
D12*
X67889120Y63237120D03*
D11*
X67889120Y35631120D03*
D12*
X67889120Y40631120D03*
D13*
X57729120Y46045120D03*
X38679120Y46045120D03*
X57729120Y47315120D03*
X57729120Y48585120D03*
X58999120Y46045120D03*
X58999120Y47315120D03*
X58999120Y48585120D03*
X39949120Y46045120D03*
X39949120Y47315120D03*
X39949120Y48585120D03*
X38679120Y48585120D03*
X38679120Y47315120D03*
X57729120Y84145120D03*
X58999120Y82875120D03*
X58999120Y84145120D03*
X56459120Y46045120D03*
X56459120Y47315120D03*
X56459120Y48585120D03*
X41219120Y46045120D03*
X41219120Y48585120D03*
X41219120Y47315120D03*
X56459120Y82875120D03*
X56459120Y84145120D03*
X41219120Y82875120D03*
X57729120Y82875120D03*
X41219120Y84145120D03*
X39949120Y82875120D03*
X38679120Y82875120D03*
X38679120Y84145120D03*
X39949120Y84145120D03*
X53919120Y54935120D03*
X51379120Y54935120D03*
X46299120Y54935120D03*
X43759120Y54935120D03*
X53919120Y75255120D03*
X51379120Y75255120D03*
X46299120Y75255120D03*
X43759120Y75255120D03*
X53919120Y76525120D03*
X51379120Y76525120D03*
X46299120Y76525120D03*
X43759120Y76525120D03*
X14549120Y40457120D03*
X33599120Y40457120D03*
X14549120Y39187120D03*
X14549120Y37917120D03*
X13279120Y40457120D03*
X13279120Y39187120D03*
X13279120Y37917120D03*
X32329120Y40457120D03*
X32329120Y39187120D03*
X32329120Y37917120D03*
X33599120Y37917120D03*
X33599120Y39187120D03*
X14549120Y2357120D03*
X13279120Y3627120D03*
X13279120Y2357120D03*
X15819120Y40457120D03*
X15819120Y39187120D03*
X15819120Y37917120D03*
X31059120Y40457120D03*
X31059120Y37917120D03*
X31059120Y39187120D03*
X15819120Y3627120D03*
X15819120Y2357120D03*
X31059120Y3627120D03*
X14549120Y3627120D03*
X31059120Y2357120D03*
X32329120Y3627120D03*
X33599120Y3627120D03*
X33599120Y2357120D03*
X32329120Y2357120D03*
X18359120Y31567120D03*
X20899120Y31567120D03*
X25979120Y31567120D03*
X28519120Y31567120D03*
X18359120Y11247120D03*
X20899120Y11247120D03*
X25979120Y11247120D03*
X28519120Y11247120D03*
X18359120Y9977120D03*
X20899120Y9977120D03*
X25979120Y9977120D03*
X28519120Y9977120D03*
X39949120Y40457120D03*
X58999120Y40457120D03*
X39949120Y39187120D03*
X39949120Y37917120D03*
X38679120Y40457120D03*
X38679120Y39187120D03*
X38679120Y37917120D03*
X57729120Y40457120D03*
X57729120Y39187120D03*
X57729120Y37917120D03*
X58999120Y37917120D03*
X58999120Y39187120D03*
X39949120Y2357120D03*
X38679120Y3627120D03*
X38679120Y2357120D03*
X41219120Y40457120D03*
X41219120Y39187120D03*
X41219120Y37917120D03*
X56459120Y40457120D03*
X56459120Y37917120D03*
X56459120Y39187120D03*
X41219120Y3627120D03*
X41219120Y2357120D03*
X56459120Y3627120D03*
X39949120Y3627120D03*
X56459120Y2357120D03*
X57729120Y3627120D03*
X58999120Y3627120D03*
X58999120Y2357120D03*
X57729120Y2357120D03*
X43759120Y31567120D03*
X46299120Y31567120D03*
X51379120Y31567120D03*
X53919120Y31567120D03*
X43759120Y11247120D03*
X46299120Y11247120D03*
X51379120Y11247120D03*
X53919120Y11247120D03*
X43759120Y9977120D03*
X46299120Y9977120D03*
X51379120Y9977120D03*
X53919120Y9977120D03*
D14*
X25239120Y60777120D03*
X21639120Y60777120D03*
X21639120Y25979120D03*
X25239120Y25979120D03*
D15*
X24439120Y56967120D03*
X22439120Y56967120D03*
X22439120Y29535120D03*
X24439120Y29535120D03*
D14*
X50385120Y60777120D03*
X46785120Y60777120D03*
X47039120Y25725120D03*
X50639120Y25725120D03*
D15*
X49839120Y56967120D03*
X47839120Y56967120D03*
X47839120Y29281120D03*
X49839120Y29281120D03*
D16*
X22761120Y72969120D03*
X20561120Y72969120D03*
X47907120Y73223120D03*
X45707120Y73223120D03*
D17*
X24709120Y64977120D03*
X24709120Y69277120D03*
X22169120Y21779120D03*
X22169120Y17479120D03*
D16*
X23863120Y13533120D03*
X26063120Y13533120D03*
X49517120Y13533120D03*
X51717120Y13533120D03*
D17*
X49855120Y64977120D03*
X49855120Y69277120D03*
X47569120Y21525120D03*
X47569120Y17225120D03*
D18*
X26675120Y72969120D03*
X24775120Y72969120D03*
X51567120Y73223120D03*
X49667120Y73223120D03*
X20266620Y13533120D03*
X22166620Y13533120D03*
X45857120Y13533120D03*
X47757120Y13533120D03*
D11*
X5151120Y16581120D03*
D12*
X5151120Y11581120D03*
D11*
X5151120Y26995120D03*
D12*
X5151120Y21995120D03*
D19*
X5151120Y4643120D03*
D20*
X7551120Y4643120D03*
X6848176Y2946064D03*
X5151120Y2243120D03*
X3454064Y2946064D03*
X2751120Y4643120D03*
X3454064Y6340176D03*
X5151120Y7043120D03*
X6848176Y6340176D03*
D19*
X36139120Y77033120D03*
D20*
X38539120Y77033120D03*
X37836176Y75336064D03*
X36139120Y74633120D03*
X34442064Y75336064D03*
X33739120Y77033120D03*
X34442064Y78730176D03*
X36139120Y79433120D03*
X37836176Y78730176D03*
D19*
X36139120Y28265120D03*
D20*
X38539120Y28265120D03*
X37836176Y26568064D03*
X36139120Y25865120D03*
X34442064Y26568064D03*
X33739120Y28265120D03*
X34442064Y29962176D03*
X36139120Y30665120D03*
X37836176Y29962176D03*
D19*
X36139120Y60269120D03*
D20*
X38539120Y60269120D03*
X37836176Y58572064D03*
X36139120Y57869120D03*
X34442064Y58572064D03*
X33739120Y60269120D03*
X34442064Y61966176D03*
X36139120Y62669120D03*
X37836176Y61966176D03*
D19*
X15819120Y27249120D03*
D20*
X18219120Y27249120D03*
X17516176Y25552064D03*
X15819120Y24849120D03*
X14122064Y25552064D03*
X13419120Y27249120D03*
X14122064Y28946176D03*
X15819120Y29649120D03*
X17516176Y28946176D03*
D19*
X36139120Y11501120D03*
D20*
X38539120Y11501120D03*
X37836176Y9804064D03*
X36139120Y9101120D03*
X34442064Y9804064D03*
X33739120Y11501120D03*
X34442064Y13198176D03*
X36139120Y13901120D03*
X37836176Y13198176D03*
D19*
X67635120Y81351120D03*
D20*
X70035120Y81351120D03*
X69332176Y79654064D03*
X67635120Y78951120D03*
X65938064Y79654064D03*
X65235120Y81351120D03*
X65938064Y83048176D03*
X67635120Y83751120D03*
X69332176Y83048176D03*
D21*
X60142120Y21473120D03*
X60142120Y23373120D03*
X58237120Y23373120D03*
X58237120Y21473120D03*
D18*
X69347120Y30043120D03*
X67447120Y30043120D03*
X67447120Y28138120D03*
X69347120Y28138120D03*
D22*
X64587120Y23058120D03*
D23*
X67127120Y23058120D03*
X69667120Y23058120D03*
M02*
